<?xml version="1.0" encoding="UTF-8"?>
<!DOCTYPE svg PUBLIC "-//W3C//DTD SVG 1.1//EN" "http://www.w3.org/Graphics/SVG/1.1/DTD/svg11.dtd">
<svg xmlns="http://www.w3.org/2000/svg" version="1.1" width="276px" height="274px" style="shape-rendering:geometricPrecision; text-rendering:geometricPrecision; image-rendering:optimizeQuality; fill-rule:evenodd; clip-rule:evenodd" xmlns:xlink="http://www.w3.org/1999/xlink">
<g><path style="opacity:1" fill="#fcfdfd" d="M -0.5,-0.5 C 40.1667,-0.5 80.8333,-0.5 121.5,-0.5C 75.1449,6.59069 39.9782,30.2574 16,70.5C 8.13282,86.8609 2.63282,103.861 -0.5,121.5C -0.5,80.8333 -0.5,40.1667 -0.5,-0.5 Z"/></g>
<g><path style="opacity:1" fill="#fafafb" d="M 239.5,47.5 C 244.478,54.6625 249.311,61.9958 254,69.5C 260.477,82.1218 265.644,95.1218 269.5,108.5C 278.453,171.404 256.453,219.904 203.5,254C 195.284,257.941 186.951,261.608 178.5,265C 169.353,267.116 160.353,269.283 151.5,271.5C 141.5,271.5 131.5,271.5 121.5,271.5C 56.0422,260.213 16.5422,221.879 3,156.5C -3.00329,98.6875 17.83,53.5208 65.5,21C 116.25,-6.42872 165.917,-4.76206 214.5,26C 223.07,33.0834 231.403,40.2501 239.5,47.5 Z"/></g>
<g><path style="opacity:1" fill="#ece6e7" d="M 137.5,21.5 C 137.833,21.5 138.167,21.5 138.5,21.5C 138.682,23.5914 138.348,25.5914 137.5,27.5C 137.667,27.8333 137.833,28.1667 138,28.5C 138.708,27.6195 139.542,26.9528 140.5,26.5C 140.5,26.8333 140.5,27.1667 140.5,27.5C 136.828,36.49 130.994,43.8233 123,49.5C 121.803,52.0891 120.803,54.7558 120,57.5C 118.113,55.9739 117.113,53.9739 117,51.5C 106.325,57.9952 99.8252,67.3285 97.5,79.5C 96.8333,81.1667 96.1667,82.8333 95.5,84.5C 95.0074,82.1944 94.6741,79.861 94.5,77.5C 94.5597,74.6592 95.2264,71.9925 96.5,69.5C 98.2672,67.0616 99.6006,64.395 100.5,61.5C 104.298,58.2039 107.964,54.7039 111.5,51C 114.896,48.8798 118.23,47.0465 121.5,45.5C 122.488,44.205 123.488,42.8717 124.5,41.5C 131.867,36.7574 136.2,30.0907 137.5,21.5 Z"/></g>
<g><path style="opacity:1" fill="#ba1f18" d="M 120.5,41.5 C 121.234,42.7079 121.567,44.0413 121.5,45.5C 118.23,47.0465 114.896,48.8798 111.5,51C 107.964,54.7039 104.298,58.2039 100.5,61.5C 99.5354,60.2789 99.702,58.9456 101,57.5C 105.252,54.4287 108.085,50.4287 109.5,45.5C 112.144,43.031 114.977,40.6976 118,38.5C 117.591,40.2251 117.758,41.8918 118.5,43.5C 119.182,42.7573 119.849,42.0906 120.5,41.5 Z"/></g>
<g><path style="opacity:1" fill="#5985ab" d="M 121.5,-0.5 C 130.833,-0.5 140.167,-0.5 149.5,-0.5C 178.262,3.54767 203.929,14.7143 226.5,33C 231.434,37.4262 235.767,42.2595 239.5,47.5C 231.403,40.2501 223.07,33.0834 214.5,26C 165.917,-4.76206 116.25,-6.42872 65.5,21C 17.83,53.5208 -3.00329,98.6875 3,156.5C 16.5422,221.879 56.0422,260.213 121.5,271.5C 121.5,271.833 121.5,272.167 121.5,272.5C 67.8445,264.927 30.3445,236.26 9,186.5C 5.12025,174.889 1.95358,163.222 -0.5,151.5C -0.5,141.5 -0.5,131.5 -0.5,121.5C 2.63282,103.861 8.13282,86.8609 16,70.5C 39.9782,30.2574 75.1449,6.59069 121.5,-0.5 Z"/></g>
<g><path style="opacity:1" fill="#b9110a" d="M 137.5,21.5 C 136.2,30.0907 131.867,36.7574 124.5,41.5C 123.903,41.2648 123.57,40.7648 123.5,40C 127.374,34.4189 131.04,28.9189 134.5,23.5C 134.755,20.9837 135.589,18.6504 137,16.5C 137.494,18.1341 137.66,19.8008 137.5,21.5 Z"/></g>
<g><path style="opacity:1" fill="#7a0d0d" d="M 134.5,23.5 C 131.04,28.9189 127.374,34.4189 123.5,40C 123.57,40.7648 123.903,41.2648 124.5,41.5C 123.488,42.8717 122.488,44.205 121.5,45.5C 121.567,44.0413 121.234,42.7079 120.5,41.5C 122.231,35.4352 125.564,30.4352 130.5,26.5C 131.833,25.5 133.167,24.5 134.5,23.5 Z"/></g>
<g><path style="opacity:1" fill="#a4a5d0" d="M 142.5,39.5 C 142.665,35.8183 142.499,32.1516 142,28.5C 141.617,27.944 141.117,27.6107 140.5,27.5C 140.5,27.1667 140.5,26.8333 140.5,26.5C 141.793,25.158 142.626,23.4913 143,21.5C 143.819,27.6812 143.653,33.6812 142.5,39.5 Z"/></g>
<g><path style="opacity:1" fill="#5b1b1d" d="M 138.5,21.5 C 138.167,21.5 137.833,21.5 137.5,21.5C 137.66,19.8008 137.494,18.1341 137,16.5C 135.589,18.6504 134.755,20.9837 134.5,23.5C 133.167,24.5 131.833,25.5 130.5,26.5C 134.359,19.395 136.192,11.7283 136,3.5C 138.151,9.30034 138.984,15.3003 138.5,21.5 Z"/></g>
<g><path style="opacity:1" fill="#c44a40" d="M 138.5,59.5 C 138.657,58.1266 138.49,56.7932 138,55.5C 137.184,56.8228 136.017,57.4894 134.5,57.5C 138.937,53.5591 142.437,48.8925 145,43.5C 144.679,49.64 142.512,54.9733 138.5,59.5 Z"/></g>
<g><path style="opacity:1" fill="#ba3328" d="M 168.5,54.5 C 168.414,55.4959 168.748,56.3292 169.5,57C 173.969,58.4327 178.302,59.9327 182.5,61.5C 182.5,61.8333 182.5,62.1667 182.5,62.5C 180.901,62.2322 179.568,62.5655 178.5,63.5C 177.399,64.5983 176.066,64.765 174.5,64C 175.711,63.1072 175.711,62.2739 174.5,61.5C 171.997,60.0357 169.33,58.869 166.5,58C 159.721,57.3693 153.054,57.7026 146.5,59C 153.374,54.8659 160.708,53.3659 168.5,54.5 Z"/></g>
<g><path style="opacity:1" fill="#e2766d" d="M 168.5,54.5 C 173.709,55.0697 178.542,56.7364 183,59.5C 183.692,60.4368 183.525,61.1034 182.5,61.5C 178.302,59.9327 173.969,58.4327 169.5,57C 168.748,56.3292 168.414,55.4959 168.5,54.5 Z"/></g>
<g><path style="opacity:1" fill="#851916" d="M 109.5,45.5 C 108.085,50.4287 105.252,54.4287 101,57.5C 99.702,58.9456 99.5354,60.2789 100.5,61.5C 99.6006,64.395 98.2672,67.0616 96.5,69.5C 95.6076,66.5491 96.2742,63.7158 98.5,61C 98.4301,60.2352 98.0967,59.7352 97.5,59.5C 100.442,53.8938 104.442,49.2271 109.5,45.5 Z"/></g>
<g><path style="opacity:1" fill="#e19990" d="M 178.5,63.5 C 179.568,62.5655 180.901,62.2322 182.5,62.5C 187.102,62.384 190.935,64.0507 194,67.5C 194.74,68.7494 194.573,69.7494 193.5,70.5C 190.62,67.7089 187.287,65.3756 183.5,63.5C 182.287,63.7472 181.62,64.4138 181.5,65.5C 180.778,64.4489 179.778,63.7822 178.5,63.5 Z"/></g>
<g><path style="opacity:1" fill="#c0342a" d="M 193.5,70.5 C 193.092,71.6431 192.425,72.6431 191.5,73.5C 188.436,70.4297 185.103,67.7631 181.5,65.5C 181.62,64.4138 182.287,63.7472 183.5,63.5C 187.287,65.3756 190.62,67.7089 193.5,70.5 Z"/></g>
<g><path style="opacity:1" fill="#a81c15" d="M 138.5,59.5 C 137.04,61.4628 135.373,63.2962 133.5,65C 122.727,68.8012 113.561,74.9679 106,83.5C 107.747,78.2328 110.913,73.7328 115.5,70C 121.519,65.3258 127.853,61.1592 134.5,57.5C 136.017,57.4894 137.184,56.8228 138,55.5C 138.49,56.7932 138.657,58.1266 138.5,59.5 Z"/></g>
<g><path style="opacity:1" fill="#2b2d8c" d="M 140.5,27.5 C 141.117,27.6107 141.617,27.944 142,28.5C 142.499,32.1516 142.665,35.8183 142.5,39.5C 140.974,45.5347 137.641,50.368 132.5,54C 117.063,60.1941 105.729,70.6941 98.5,85.5C 97.5386,83.7354 97.2053,81.7354 97.5,79.5C 99.8252,67.3285 106.325,57.9952 117,51.5C 117.113,53.9739 118.113,55.9739 120,57.5C 120.803,54.7558 121.803,52.0891 123,49.5C 130.994,43.8233 136.828,36.49 140.5,27.5 Z"/></g>
<g><path style="opacity:1" fill="#4c1218" d="M 97.5,59.5 C 98.0967,59.7352 98.4301,60.2352 98.5,61C 96.2742,63.7158 95.6076,66.5491 96.5,69.5C 95.2264,71.9925 94.5597,74.6592 94.5,77.5C 93.8333,79.8333 93.1667,82.1667 92.5,84.5C 91.3075,75.4443 92.9742,67.111 97.5,59.5 Z"/></g>
<g><path style="opacity:1" fill="#2e2d8d" d="M 186.5,75.5 C 186.02,78.0046 185.02,80.3379 183.5,82.5C 183.043,83.2975 182.376,83.6309 181.5,83.5C 171.137,72.3136 158.471,67.9802 143.5,70.5C 140.017,71.2013 136.684,72.2013 133.5,73.5C 134.075,71.5887 135.075,69.922 136.5,68.5C 146.518,62.0914 157.185,60.9247 168.5,65C 168.043,65.414 167.709,65.914 167.5,66.5C 175.059,67.1148 181.393,70.1148 186.5,75.5 Z"/></g>
<g><path style="opacity:1" fill="#20274f" d="M 136.5,68.5 C 135.075,69.922 134.075,71.5887 133.5,73.5C 132.167,74.5 130.833,75.5 129.5,76.5C 128.279,77.0283 127.113,77.695 126,78.5C 127.932,73.7393 131.432,70.406 136.5,68.5 Z"/></g>
<g><path style="opacity:1" fill="#9e9ea8" d="M 143.5,70.5 C 146.5,71.1667 149.5,71.8333 152.5,72.5C 148.575,72.4299 144.909,73.0966 141.5,74.5C 139.435,74.5172 137.435,74.8505 135.5,75.5C 134.508,75.3284 133.842,75.6618 133.5,76.5C 132.167,76.5 130.833,76.5 129.5,76.5C 130.833,75.5 132.167,74.5 133.5,73.5C 136.684,72.2013 140.017,71.2013 143.5,70.5 Z"/></g>
<g><path style="opacity:1" fill="#3f1419" d="M 152.5,72.5 C 159.933,73.8847 166.599,76.8847 172.5,81.5C 174.446,84.7988 176.446,88.1321 178.5,91.5C 178.137,92.1835 177.804,92.8501 177.5,93.5C 169.549,79.8542 157.549,73.5208 141.5,74.5C 144.909,73.0966 148.575,72.4299 152.5,72.5 Z"/></g>
<g><path style="opacity:1" fill="#645ea7" d="M 186.5,75.5 C 187.812,76.1451 188.812,77.1451 189.5,78.5C 187.833,81.1667 186.167,83.8333 184.5,86.5C 183.145,85.8118 182.145,84.8118 181.5,83.5C 182.376,83.6309 183.043,83.2975 183.5,82.5C 185.02,80.3379 186.02,78.0046 186.5,75.5 Z"/></g>
<g><path style="opacity:1" fill="#5a87a7" d="M 239.5,47.5 C 255.566,64.6352 265.566,84.9685 269.5,108.5C 265.644,95.1218 260.477,82.1218 254,69.5C 249.311,61.9958 244.478,54.6625 239.5,47.5 Z"/></g>
<g><path style="opacity:1" fill="#dada97" d="M 135.5,75.5 C 135.489,77.0174 134.823,78.1841 133.5,79C 135.664,79.9143 137.664,81.081 139.5,82.5C 143.949,81.2915 144.283,81.6249 140.5,83.5C 138.139,84.4348 135.972,85.7682 134,87.5C 133.493,86.0039 133.993,84.8373 135.5,84C 133.874,84.1953 132.207,84.1953 130.5,84C 129.244,83.5831 128.577,82.7498 128.5,81.5C 130.36,80.0613 132.027,78.3947 133.5,76.5C 133.842,75.6618 134.508,75.3284 135.5,75.5 Z"/></g>
<g><path style="opacity:1" fill="#34366d" d="M 97.5,79.5 C 97.2053,81.7354 97.5386,83.7354 98.5,85.5C 98.4828,87.5648 98.1495,89.5648 97.5,91.5C 95.6565,89.7211 94.9898,87.3878 95.5,84.5C 96.1667,82.8333 96.8333,81.1667 97.5,79.5 Z"/></g>
<g><path style="opacity:1" fill="#464143" d="M 94.5,77.5 C 94.6741,79.861 95.0074,82.1944 95.5,84.5C 94.9898,87.3878 95.6565,89.7211 97.5,91.5C 98.3388,94.8349 98.8388,98.1682 99,101.5C 95.7473,96.241 93.5807,90.5743 92.5,84.5C 93.1667,82.1667 93.8333,79.8333 94.5,77.5 Z"/></g>
<g><path style="opacity:1" fill="#afab25" d="M 128.5,81.5 C 128.577,82.7498 129.244,83.5831 130.5,84C 132.207,84.1953 133.874,84.1953 135.5,84C 133.993,84.8373 133.493,86.0039 134,87.5C 135.972,85.7682 138.139,84.4348 140.5,83.5C 139.521,85.1454 138.188,86.4787 136.5,87.5C 135.571,88.6888 135.238,90.0222 135.5,91.5C 133.473,91.3379 131.473,91.5045 129.5,92C 126.213,94.5793 122.88,97.0793 119.5,99.5C 117.466,98.4093 116.132,96.7426 115.5,94.5C 115.215,92.712 115.548,91.0453 116.5,89.5C 120.264,86.3893 124.264,83.7226 128.5,81.5 Z"/></g>
<g><path style="opacity:1" fill="#8b2822" d="M 172.5,81.5 C 175.832,84 178.666,87 181,90.5C 181.418,92.788 180.751,94.788 179,96.5C 177.961,95.7562 177.461,94.7562 177.5,93.5C 177.804,92.8501 178.137,92.1835 178.5,91.5C 176.446,88.1321 174.446,84.7988 172.5,81.5 Z"/></g>
<g><path style="opacity:1" fill="#9099c3" d="M 163.5,90.5 C 163.5,90.1667 163.5,89.8333 163.5,89.5C 167.025,90.7589 170.025,92.7589 172.5,95.5C 169.043,94.6062 166.043,92.9395 163.5,90.5 Z"/></g>
<g><path style="opacity:1" fill="#c2c183" d="M 115.5,94.5 C 116.132,96.7426 117.466,98.4093 119.5,99.5C 119.5,100.5 119.5,101.5 119.5,102.5C 118.07,102.421 116.736,102.754 115.5,103.5C 114.437,97.4808 112.77,97.4808 110.5,103.5C 108.721,102.33 107.721,100.664 107.5,98.5C 106.321,96.4935 106.821,96.1602 109,97.5C 110.33,92.8055 112.163,92.1389 114.5,95.5C 115.107,95.3764 115.44,95.0431 115.5,94.5 Z"/></g>
<g><path style="opacity:1" fill="#b7b32c" d="M 143.5,85.5 C 147.988,88.2468 152.322,91.2468 156.5,94.5C 156.512,96.4121 156.179,98.4121 155.5,100.5C 155.833,100.833 156.167,101.167 156.5,101.5C 158.872,98.8791 159.538,99.2124 158.5,102.5C 158.855,103.522 159.522,104.189 160.5,104.5C 160.5,104.833 160.5,105.167 160.5,105.5C 158.139,104.565 155.972,103.232 154,101.5C 153.329,102.252 152.496,102.586 151.5,102.5C 151.703,100.61 151.037,99.1096 149.5,98C 145.526,96.1838 142.026,93.6838 139,90.5C 139,87.6998 140.5,86.0331 143.5,85.5 Z"/></g>
<g><path style="opacity:1" fill="#981b19" d="M 91.5,93.5 C 91.4431,94.609 91.1098,95.609 90.5,96.5C 89.8826,96.6107 89.3826,96.944 89,97.5C 88.5034,99.8098 88.3367,102.143 88.5,104.5C 88.1667,104.5 87.8333,104.5 87.5,104.5C 87.3354,101.482 87.502,98.4816 88,95.5C 88.8159,94.1772 89.9826,93.5106 91.5,93.5 Z"/></g>
<g><path style="opacity:1" fill="#e0dd9e" d="M 163.5,95.5 C 164.167,95.5 164.5,95.8333 164.5,96.5C 163.957,96.56 163.624,96.8933 163.5,97.5C 164.167,98.5 164.833,99.5 165.5,100.5C 163.985,102.082 162.319,103.416 160.5,104.5C 159.522,104.189 158.855,103.522 158.5,102.5C 159.538,99.2124 158.872,98.8791 156.5,101.5C 156.167,101.167 155.833,100.833 155.5,100.5C 156.179,98.4121 156.512,96.4121 156.5,94.5C 152.322,91.2468 147.988,88.2468 143.5,85.5C 144.314,83.7274 145.648,83.2274 147.5,84C 152.089,86.9591 155.756,90.7925 158.5,95.5C 160.199,96.8146 161.865,96.8146 163.5,95.5 Z"/></g>
<g><path style="opacity:1" fill="#efecbb" d="M 160.5,105.5 C 163.826,105.967 164.159,107.134 161.5,109C 162.774,109.977 162.774,110.811 161.5,111.5C 161.167,110.5 160.5,109.833 159.5,109.5C 158.612,107.191 156.946,105.524 154.5,104.5C 153.935,106.544 152.935,108.21 151.5,109.5C 152.686,107.126 152.686,104.792 151.5,102.5C 152.496,102.586 153.329,102.252 154,101.5C 155.972,103.232 158.139,104.565 160.5,105.5 Z"/></g>
<g><path style="opacity:1" fill="#fe7f73" d="M 90.5,96.5 C 90.6641,99.1873 90.4974,101.854 90,104.5C 89.31,105.738 88.81,105.738 88.5,104.5C 88.3367,102.143 88.5034,99.8098 89,97.5C 89.3826,96.944 89.8826,96.6107 90.5,96.5 Z"/></g>
<g><path style="opacity:1" fill="#4b4644" d="M 163.5,89.5 C 163.5,89.8333 163.5,90.1667 163.5,90.5C 163.062,90.4346 162.728,90.6012 162.5,91C 165.039,93.3697 167.372,95.8697 169.5,98.5C 171.975,101.785 173.642,105.452 174.5,109.5C 173.167,107.833 171.833,106.167 170.5,104.5C 168.885,101.55 166.885,98.8838 164.5,96.5C 164.5,95.8333 164.167,95.5 163.5,95.5C 162.419,93.236 161.085,91.0693 159.5,89C 160.819,88.805 162.153,88.9717 163.5,89.5 Z"/></g>
<g><path style="opacity:1" fill="#3d3824" d="M 107.5,98.5 C 107.721,100.664 108.721,102.33 110.5,103.5C 111.555,109.998 113.222,116.331 115.5,122.5C 115.796,124.403 116.463,126.07 117.5,127.5C 117.263,128.791 117.596,129.791 118.5,130.5C 118.573,132.027 117.906,133.027 116.5,133.5C 112.602,121.974 108.602,110.474 104.5,99C 105.448,98.5172 106.448,98.3505 107.5,98.5 Z"/></g>
<g><path style="opacity:1" fill="#a81814" d="M 71.5,116.5 C 68.8333,114.167 66.1667,111.833 63.5,109.5C 64.4752,107.487 66.1419,106.154 68.5,105.5C 69.3956,109.224 70.3956,112.89 71.5,116.5 Z"/></g>
<g><path style="opacity:1" fill="#575859" d="M 254.5,107.5 C 255.978,107.238 257.311,107.571 258.5,108.5C 256.668,109.248 255.001,110.248 253.5,111.5C 253.167,111.167 252.833,110.833 252.5,110.5C 253.193,109.482 253.859,108.482 254.5,107.5 Z"/></g>
<g><path style="opacity:1" fill="#696668" d="M 11.5,107.5 C 12.552,107.351 13.552,107.517 14.5,108C 12.7922,109.062 12.1255,110.229 12.5,111.5C 10.3576,110.563 10.0243,109.23 11.5,107.5 Z"/></g>
<g><path style="opacity:1" fill="#444446" d="M 248.5,110.5 C 249.209,109.596 250.209,109.263 251.5,109.5C 251.33,114.275 250.33,114.608 248.5,110.5 Z"/></g>
<g><path style="opacity:1" fill="#b6b323" d="M 159.5,109.5 C 157.714,114.317 156.714,119.317 156.5,124.5C 155.06,125.363 153.726,125.363 152.5,124.5C 151.833,125.5 151.167,126.5 150.5,127.5C 148.758,125.437 147.091,123.437 145.5,121.5C 147.017,121.489 148.184,120.823 149,119.5C 150.15,116.232 150.984,112.899 151.5,109.5C 152.935,108.21 153.935,106.544 154.5,104.5C 156.946,105.524 158.612,107.191 159.5,109.5 Z"/></g>
<g><path style="opacity:1" fill="#cecd67" d="M 159.5,109.5 C 160.5,109.833 161.167,110.5 161.5,111.5C 160.539,114.426 159.873,117.426 159.5,120.5C 158.022,121.448 157.022,122.781 156.5,124.5C 156.714,119.317 157.714,114.317 159.5,109.5 Z"/></g>
<g><path style="opacity:1" fill="#dfb1ae" d="M 197.5,135.5 C 196.836,130.532 196.336,125.532 196,120.5C 195.623,119.058 194.79,118.058 193.5,117.5C 192.58,116.933 192.246,117.599 192.5,119.5C 190.886,114.495 189.386,109.495 188,104.5C 196.557,113.328 199.724,123.661 197.5,135.5 Z"/></g>
<g><path style="opacity:1" fill="#2c2d8b" d="M 116.5,138.5 C 113.038,139.482 109.371,139.815 105.5,139.5C 104.833,139.5 104.167,139.5 103.5,139.5C 95.0867,137.263 88.0867,132.763 82.5,126C 83.624,125.751 84.624,125.251 85.5,124.5C 77.1868,119.541 73.3535,112.208 74,102.5C 76.4206,101.039 78.9206,99.7061 81.5,98.5C 84.0491,120.037 95.7158,133.37 116.5,138.5 Z"/></g>
<g><path style="opacity:1" fill="#5e5e61" d="M 15.5,108.5 C 20.4932,106.319 22.3265,107.986 21,113.5C 19.47,114.92 17.6367,115.92 15.5,116.5C 16.376,117.251 17.376,117.751 18.5,118C 13.5489,119.545 11.8822,118.045 13.5,113.5C 19.4419,113.788 19.7752,112.955 14.5,111C 15.624,110.751 16.624,110.251 17.5,109.5C 17.0431,108.702 16.3764,108.369 15.5,108.5 Z"/></g>
<g><path style="opacity:1" fill="#4b0f14" d="M 63.5,109.5 C 66.1667,111.833 68.8333,114.167 71.5,116.5C 72.9744,117.436 73.9744,118.77 74.5,120.5C 72.4816,121.933 70.8149,121.599 69.5,119.5C 65.9752,117.122 63.9752,113.789 63.5,109.5 Z"/></g>
<g><path style="opacity:1" fill="#605f61" d="M 259.5,111.5 C 260.552,111.351 261.552,111.517 262.5,112C 260.5,114 258.5,116 256.5,118C 257.793,118.49 259.127,118.657 260.5,118.5C 260.785,122.038 259.118,123.871 255.5,124C 257.112,124.72 258.612,124.554 260,123.5C 260.483,124.448 260.649,125.448 260.5,126.5C 253.648,126.445 252.981,124.611 258.5,121C 256.833,120.667 255.167,120.333 253.5,120C 253.982,118.992 254.148,117.825 254,116.5C 259.406,115.283 259.573,114.116 254.5,113C 256.382,112.802 258.048,112.302 259.5,111.5 Z"/></g>
<g><path style="opacity:1" fill="#b6b127" d="M 119.5,102.5 C 119.08,104.094 118.414,105.594 117.5,107C 119.467,111.735 121.134,116.569 122.5,121.5C 120.393,122.468 118.059,122.802 115.5,122.5C 113.222,116.331 111.555,109.998 110.5,103.5C 112.77,97.4808 114.437,97.4808 115.5,103.5C 116.736,102.754 118.07,102.421 119.5,102.5 Z"/></g>
<g><path style="opacity:1" fill="#e3b0b2" d="M 87.5,104.5 C 87.8333,104.5 88.1667,104.5 88.5,104.5C 88.81,105.738 89.31,105.738 90,104.5C 90.4974,101.854 90.6641,99.1873 90.5,96.5C 91.1098,95.609 91.4431,94.609 91.5,93.5C 91.0718,99.1206 91.5718,105.454 93,112.5C 95.2959,118.466 98.7959,123.633 103.5,128C 102.833,128.667 102.167,128.667 101.5,128C 93.6866,122.025 89.0199,114.191 87.5,104.5 Z"/></g>
<g><path style="opacity:1" fill="#444346" d="M 18.5,120.5 C 18.631,121.239 18.4643,121.906 18,122.5C 16.9148,121.707 15.7481,121.04 14.5,120.5C 14.0357,121.636 13.7024,122.636 13.5,123.5C 12.5655,122.432 12.2322,121.099 12.5,119.5C 14.7354,119.205 16.7354,119.539 18.5,120.5 Z"/></g>
<g><path style="opacity:1" fill="#979799" d="M 18.5,120.5 C 24.1674,124.294 23.8341,125.794 17.5,125C 18.6843,126.145 18.6843,127.312 17.5,128.5C 15.6943,129.024 14.0276,129.691 12.5,130.5C 11.3473,129.687 11.3473,128.687 12.5,127.5C 13.9079,126.757 15.2412,125.923 16.5,125C 15.2625,124.768 14.2625,124.268 13.5,123.5C 13.7024,122.636 14.0357,121.636 14.5,120.5C 15.7481,121.04 16.9148,121.707 18,122.5C 18.4643,121.906 18.631,121.239 18.5,120.5 Z"/></g>
<g><path style="opacity:1" fill="#e1dfa3" d="M 122.5,121.5 C 124.553,121.402 126.22,122.069 127.5,123.5C 126.5,123.5 125.5,123.5 124.5,123.5C 124.5,124.833 124.5,126.167 124.5,127.5C 122.167,127.5 119.833,127.5 117.5,127.5C 116.463,126.07 115.796,124.403 115.5,122.5C 118.059,122.802 120.393,122.468 122.5,121.5 Z"/></g>
<g><path style="opacity:1" fill="#e7e5b1" d="M 159.5,120.5 C 159.072,123.564 158.406,126.564 157.5,129.5C 157.267,131.062 156.6,132.395 155.5,133.5C 153.278,132.312 150.945,131.312 148.5,130.5C 147.921,128.133 146.588,126.3 144.5,125C 138.652,124.827 132.985,124.327 127.5,123.5C 133.792,124.053 139.792,123.386 145.5,121.5C 147.091,123.437 148.758,125.437 150.5,127.5C 151.167,126.5 151.833,125.5 152.5,124.5C 153.726,125.363 155.06,125.363 156.5,124.5C 157.022,122.781 158.022,121.448 159.5,120.5 Z"/></g>
<g><path style="opacity:1" fill="#481e20" d="M 170.5,104.5 C 171.833,106.167 173.167,107.833 174.5,109.5C 175.94,116.903 175.607,124.236 173.5,131.5C 172.391,131.557 171.391,131.89 170.5,132.5C 173.167,123.167 173.167,113.833 170.5,104.5 Z"/></g>
<g><path style="opacity:1" fill="#bab32c" d="M 127.5,123.5 C 132.985,124.327 138.652,124.827 144.5,125C 146.588,126.3 147.921,128.133 148.5,130.5C 147.652,131.625 146.652,131.625 145.5,130.5C 145.719,129.325 145.386,128.325 144.5,127.5C 143.571,128.689 143.238,130.022 143.5,131.5C 135.142,131.621 126.809,131.288 118.5,130.5C 117.596,129.791 117.263,128.791 117.5,127.5C 119.833,127.5 122.167,127.5 124.5,127.5C 124.5,126.167 124.5,124.833 124.5,123.5C 125.5,123.5 126.5,123.5 127.5,123.5 Z"/></g>
<g><path style="opacity:1" fill="#555457" d="M 257.5,128.5 C 258.708,127.218 260.042,127.218 261.5,128.5C 260.375,130.794 259.041,130.794 257.5,128.5 Z"/></g>
<g><path style="opacity:1" fill="#111113" d="M 17.5,128.5 C 16.4479,130.256 14.7812,130.923 12.5,130.5C 14.0276,129.691 15.6943,129.024 17.5,128.5 Z"/></g>
<g><path style="opacity:1" fill="#9d1c1a" d="M 69.5,119.5 C 70.8149,121.599 72.4816,121.933 74.5,120.5C 78.7804,121.655 79.1138,122.989 75.5,124.5C 77.8042,129.795 81.4709,133.795 86.5,136.5C 86.6309,137.376 86.2975,138.043 85.5,138.5C 79.9104,135.532 75.7437,131.198 73,125.5C 71.549,123.536 69.7157,122.203 67.5,121.5C 68.1667,120.833 68.8333,120.167 69.5,119.5 Z"/></g>
<g><path style="opacity:1" fill="#403f44" d="M 257.5,128.5 C 257.719,129.675 257.386,130.675 256.5,131.5C 255.335,130.14 255.668,129.14 257.5,128.5 Z"/></g>
<g><path style="opacity:1" fill="#371412" d="M 67.5,121.5 C 69.7157,122.203 71.549,123.536 73,125.5C 75.7437,131.198 79.9104,135.532 85.5,138.5C 86.2975,138.043 86.6309,137.376 86.5,136.5C 88.2163,138.025 90.2163,139.025 92.5,139.5C 94.0188,140.41 95.6854,141.243 97.5,142C 96.552,142.483 95.552,142.649 94.5,142.5C 81.7158,140.384 72.7158,133.384 67.5,121.5 Z"/></g>
<g><path style="opacity:1" fill="#ebedc5" d="M 145.5,130.5 C 145.158,131.338 144.492,131.672 143.5,131.5C 143.238,130.022 143.571,128.689 144.5,127.5C 145.386,128.325 145.719,129.325 145.5,130.5 Z"/></g>
<g><path style="opacity:1" fill="#f28e80" d="M 193.5,117.5 C 194.79,118.058 195.623,119.058 196,120.5C 196.336,125.532 196.836,130.532 197.5,135.5C 197.5,135.833 197.5,136.167 197.5,136.5C 196.778,136.082 196.278,135.416 196,134.5C 195.952,128.661 195.119,122.994 193.5,117.5 Z"/></g>
<g><path style="opacity:1" fill="#575559" d="M 11.5,131.5 C 13.1992,131.34 14.8659,131.506 16.5,132C 18.0074,132.837 18.5074,134.004 18,135.5C 15.9361,136.591 13.7695,136.758 11.5,136C 12.5,135.667 13.5,135.333 14.5,135C 12.9371,134.241 11.9371,133.074 11.5,131.5 Z"/></g>
<g><path style="opacity:1" fill="#a9261e" d="M 193.5,117.5 C 195.119,122.994 195.952,128.661 196,134.5C 196.278,135.416 196.778,136.082 197.5,136.5C 197.631,137.239 197.464,137.906 197,138.5C 196.184,137.177 195.017,136.511 193.5,136.5C 192.833,136.167 192.167,135.833 191.5,135.5C 191.322,134.305 190.989,133.138 190.5,132C 191.473,131.651 192.306,130.818 193,129.5C 193.747,126.076 193.58,122.743 192.5,119.5C 192.246,117.599 192.58,116.933 193.5,117.5 Z"/></g>
<g><path style="opacity:1" fill="#74723d" d="M 118.5,130.5 C 126.809,131.288 135.142,131.621 143.5,131.5C 144.492,131.672 145.158,131.338 145.5,130.5C 146.652,131.625 147.652,131.625 148.5,130.5C 150.945,131.312 153.278,132.312 155.5,133.5C 155.158,134.338 154.492,134.672 153.5,134.5C 140.989,134.829 128.655,134.495 116.5,133.5C 117.906,133.027 118.573,132.027 118.5,130.5 Z"/></g>
<g><path style="opacity:1" fill="#46487c" d="M 157.5,142.5 C 157.519,140.94 157.852,139.44 158.5,138C 158.164,136.97 157.497,136.47 156.5,136.5C 157.455,134.254 158.122,131.921 158.5,129.5C 159.32,127.86 160.153,126.193 161,124.5C 161.167,125.167 161.333,125.833 161.5,126.5C 160.386,132.041 159.052,137.374 157.5,142.5 Z"/></g>
<g><path style="opacity:1" fill="#a4a4a8" d="M 261.5,137.5 C 259.265,137.205 257.265,137.539 255.5,138.5C 254.957,138.44 254.624,138.107 254.5,137.5C 255.154,135.885 255.654,134.218 256,132.5C 257.73,132.509 259.563,132.842 261.5,133.5C 260.167,134.167 258.833,134.833 257.5,135.5C 258.949,136.172 260.282,136.839 261.5,137.5 Z"/></g>
<g><path style="opacity:1" fill="#5e5d60" d="M 15.5,137.5 C 18.0838,138.048 19.0838,139.715 18.5,142.5C 16.1432,142.663 13.8098,142.497 11.5,142C 12.624,141.751 13.624,141.251 14.5,140.5C 13.6034,140.331 12.6034,139.998 11.5,139.5C 12.9492,138.828 14.2825,138.161 15.5,137.5 Z"/></g>
<g><path style="opacity:1" fill="#7b1313" d="M 173.5,131.5 C 172.117,135.934 170.451,140.267 168.5,144.5C 166.621,145.341 164.621,145.675 162.5,145.5C 161.761,145.631 161.094,145.464 160.5,145C 164.694,141.402 168.028,137.235 170.5,132.5C 171.391,131.89 172.391,131.557 173.5,131.5 Z"/></g>
<g><path style="opacity:1" fill="#3d3d40" d="M 255.5,138.5 C 257.265,137.539 259.265,137.205 261.5,137.5C 260.167,138.5 258.833,139.5 257.5,140.5C 256.761,140.631 256.094,140.464 255.5,140C 256.738,139.31 256.738,138.81 255.5,138.5 Z"/></g>
<g><path style="opacity:1" fill="#312e64" d="M 116.5,138.5 C 119.85,138.335 123.183,138.502 126.5,139C 123.865,140.024 121.198,140.857 118.5,141.5C 113.706,142.097 109.373,141.43 105.5,139.5C 109.371,139.815 113.038,139.482 116.5,138.5 Z"/></g>
<g><path style="opacity:1" fill="#afa5ab" d="M 157.5,129.5 C 157.833,129.5 158.167,129.5 158.5,129.5C 158.122,131.921 157.455,134.254 156.5,136.5C 155.189,139.135 153.522,141.469 151.5,143.5C 150.368,142.646 149.035,142.646 147.5,143.5C 147.833,142.833 148.167,142.167 148.5,141.5C 150.422,139.313 152.088,136.98 153.5,134.5C 154.492,134.672 155.158,134.338 155.5,133.5C 156.6,132.395 157.267,131.062 157.5,129.5 Z"/></g>
<g><path style="opacity:1" fill="#2b2c88" d="M 163.5,90.5 C 166.043,92.9395 169.043,94.6062 172.5,95.5C 182.426,103.019 187.259,113.019 187,125.5C 186.107,124.289 185.274,124.289 184.5,125.5C 186.422,129.299 186.922,133.299 186,137.5C 185.261,140.546 184.428,143.546 183.5,146.5C 183.5,147.167 183.167,147.5 182.5,147.5C 179.473,146.26 176.473,145.26 173.5,144.5C 181.48,130.001 181.313,115.668 173,101.5C 172.241,99.9371 171.074,98.9371 169.5,98.5C 167.372,95.8697 165.039,93.3697 162.5,91C 162.728,90.6012 163.062,90.4346 163.5,90.5 Z"/></g>
<g><path style="opacity:1" fill="#1f1e21" d="M 257.5,140.5 C 259.103,140.312 260.437,140.812 261.5,142C 259.782,142.346 258.115,142.846 256.5,143.5C 256.167,143.167 255.833,142.833 255.5,142.5C 256.243,141.818 256.909,141.151 257.5,140.5 Z"/></g>
<g><path style="opacity:1" fill="#948990" d="M 92.5,139.5 C 96.3276,140.498 99.9943,140.498 103.5,139.5C 104.167,139.5 104.833,139.5 105.5,139.5C 109.373,141.43 113.706,142.097 118.5,141.5C 112.513,142.44 106.346,143.106 100,143.5C 97.9674,143.494 96.134,143.161 94.5,142.5C 95.552,142.649 96.552,142.483 97.5,142C 95.6854,141.243 94.0188,140.41 92.5,139.5 Z"/></g>
<g><path style="opacity:1" fill="#eae5e9" d="M 169.5,98.5 C 171.074,98.9371 172.241,99.9371 173,101.5C 181.313,115.668 181.48,130.001 173.5,144.5C 173.167,144.5 172.833,144.5 172.5,144.5C 171.167,144.5 169.833,144.5 168.5,144.5C 170.451,140.267 172.117,135.934 173.5,131.5C 175.607,124.236 175.94,116.903 174.5,109.5C 173.642,105.452 171.975,101.785 169.5,98.5 Z"/></g>
<g><path style="opacity:1" fill="#b11f1f" d="M 190.5,139.5 C 191.725,140.152 192.392,141.319 192.5,143C 192.304,144.878 191.971,146.712 191.5,148.5C 189.821,148.715 188.821,148.048 188.5,146.5C 189.455,144.254 190.122,141.921 190.5,139.5 Z"/></g>
<g><path style="opacity:1" fill="#df8278" d="M 191.5,135.5 C 192.167,135.833 192.833,136.167 193.5,136.5C 196.241,141.388 195.907,146.055 192.5,150.5C 192.672,149.508 192.338,148.842 191.5,148.5C 191.971,146.712 192.304,144.878 192.5,143C 192.392,141.319 191.725,140.152 190.5,139.5C 191.234,138.292 191.567,136.959 191.5,135.5 Z"/></g>
<g><path style="opacity:1" fill="#4a4646" d="M 254.5,145.5 C 257.64,144.359 260.973,144.192 264.5,145C 263.975,145.692 263.308,146.192 262.5,146.5C 259.916,145.607 257.249,145.274 254.5,145.5 Z"/></g>
<g><path style="opacity:1" fill="#6c6c69" d="M 168.5,144.5 C 169.833,144.5 171.167,144.5 172.5,144.5C 172.5,145.5 172.5,146.5 172.5,147.5C 169.059,146.903 165.725,146.237 162.5,145.5C 164.621,145.675 166.621,145.341 168.5,144.5 Z"/></g>
<g><path style="opacity:1" fill="#4c4a4c" d="M 13.5,151.5 C 14.3984,150.842 15.3984,150.176 16.5,149.5C 15.1667,148.833 13.8333,148.167 12.5,147.5C 13.0656,146.709 13.899,146.709 15,147.5C 16.0588,147.37 16.8921,146.87 17.5,146C 15.7215,146.979 14.0548,146.646 12.5,145C 13.0253,144.308 13.6919,143.808 14.5,143.5C 15.5,144.833 16.5,144.833 17.5,143.5C 17.7351,146.22 18.0684,148.886 18.5,151.5C 16.8333,151.5 15.1667,151.5 13.5,151.5 Z"/></g>
<g><path style="opacity:1" fill="#141837" d="M 172.5,144.5 C 172.833,144.5 173.167,144.5 173.5,144.5C 176.473,145.26 179.473,146.26 182.5,147.5C 182.5,147.833 182.5,148.167 182.5,148.5C 179.167,148.167 175.833,147.833 172.5,147.5C 172.5,146.5 172.5,145.5 172.5,144.5 Z"/></g>
<g><path style="opacity:1" fill="#631321" d="M 109.5,145.5 C 110.6,146.605 111.267,147.938 111.5,149.5C 110.833,149.5 110.167,149.5 109.5,149.5C 108.314,148.039 108.314,146.705 109.5,145.5 Z"/></g>
<g><path style="opacity:1" fill="#7d827d" d="M 183.5,146.5 C 184.833,146.5 186.167,146.5 187.5,146.5C 186.89,147.391 186.557,148.391 186.5,149.5C 185.041,149.567 183.708,149.234 182.5,148.5C 182.5,148.167 182.5,147.833 182.5,147.5C 183.167,147.5 183.5,147.167 183.5,146.5 Z"/></g>
<g><path style="opacity:1" fill="#5d1d1a" d="M 187.5,146.5 C 187.833,146.5 188.167,146.5 188.5,146.5C 188.821,148.048 189.821,148.715 191.5,148.5C 192.338,148.842 192.672,149.508 192.5,150.5C 190.435,150.483 188.435,150.15 186.5,149.5C 186.557,148.391 186.89,147.391 187.5,146.5 Z"/></g>
<g><path style="opacity:1" fill="#de6663" d="M 109.5,145.5 C 112.09,146.128 114.423,147.295 116.5,149C 120.152,149.499 123.818,149.665 127.5,149.5C 122.394,151.64 117.061,151.973 111.5,150.5C 111.5,150.167 111.5,149.833 111.5,149.5C 111.267,147.938 110.6,146.605 109.5,145.5 Z"/></g>
<g><path style="opacity:1" fill="#817f82" d="M 256.5,150.5 C 257.398,151.158 258.398,151.824 259.5,152.5C 258.45,153.429 258.45,154.095 259.5,154.5C 259.762,155.978 259.429,157.311 258.5,158.5C 256.833,157.667 255.167,156.833 253.5,156C 255.058,155.79 256.391,155.29 257.5,154.5C 257.043,152.443 256.043,152.443 254.5,154.5C 253.032,153.194 251.699,151.694 250.5,150C 251.549,149.508 252.549,149.674 253.5,150.5C 254.892,149.395 256.059,148.061 257,146.5C 258,147.833 259,147.833 260,146.5C 260.617,149.176 259.784,149.843 257.5,148.5C 256.702,148.957 256.369,149.624 256.5,150.5 Z"/></g>
<g><path style="opacity:1" fill="#242123" d="M 256.5,150.5 C 257.833,150.5 259.167,150.5 260.5,150.5C 260.768,152.099 260.434,153.432 259.5,154.5C 258.45,154.095 258.45,153.429 259.5,152.5C 258.398,151.824 257.398,151.158 256.5,150.5 Z"/></g>
<g><path style="opacity:1" fill="#b0362b" d="M 148.5,141.5 C 148.167,142.167 147.833,142.833 147.5,143.5C 137.319,152.007 125.653,154.673 112.5,151.5C 111.833,151.5 111.5,151.167 111.5,150.5C 117.061,151.973 122.394,151.64 127.5,149.5C 135.163,148.393 142.163,145.726 148.5,141.5 Z"/></g>
<g><path style="opacity:1" fill="#020402" d="M 257.5,154.5 C 256.5,154.5 255.5,154.5 254.5,154.5C 256.043,152.443 257.043,152.443 257.5,154.5 Z"/></g>
<g><path style="opacity:1" fill="#6d6c6f" d="M 13.5,151.5 C 14.9488,153.164 16.9488,153.998 19.5,154C 18.3595,154.741 18.3595,155.575 19.5,156.5C 19.0431,157.298 18.3764,157.631 17.5,157.5C 16.5263,155.915 15.0263,154.915 13,154.5C 12.2599,153.251 12.4265,152.251 13.5,151.5 Z"/></g>
<g><path style="opacity:1" fill="#f2eef1" d="M 151.5,143.5 C 145.76,150.376 138.427,154.709 129.5,156.5C 124.125,156.828 118.792,156.495 113.5,155.5C 112.754,154.264 112.421,152.93 112.5,151.5C 125.653,154.673 137.319,152.007 147.5,143.5C 149.035,142.646 150.368,142.646 151.5,143.5 Z"/></g>
<g><path style="opacity:1" fill="#2b2b8b" d="M 156.5,136.5 C 157.497,136.47 158.164,136.97 158.5,138C 157.852,139.44 157.519,140.94 157.5,142.5C 153.974,151.696 147.641,158.362 138.5,162.5C 137.719,161.271 137.219,159.938 137,158.5C 134.793,161.564 131.959,163.564 128.5,164.5C 124.787,165.293 121.12,165.293 117.5,164.5C 116.754,163.264 116.421,161.93 116.5,160.5C 118.895,161.363 121.229,161.363 123.5,160.5C 120.572,159.516 117.572,159.183 114.5,159.5C 113.957,159.44 113.624,159.107 113.5,158.5C 118.985,157.833 124.319,157.167 129.5,156.5C 138.427,154.709 145.76,150.376 151.5,143.5C 153.522,141.469 155.189,139.135 156.5,136.5 Z"/></g>
<g><path style="opacity:1" fill="#fdfdfd" d="M 149.5,-0.5 C 191.5,-0.5 233.5,-0.5 275.5,-0.5C 275.5,90.8333 275.5,182.167 275.5,273.5C 234.167,273.5 192.833,273.5 151.5,273.5C 151.5,272.833 151.5,272.167 151.5,271.5C 202.109,265.281 238.609,239.281 261,193.5C 273.188,165.913 276.022,137.58 269.5,108.5C 265.566,84.9685 255.566,64.6352 239.5,47.5C 235.767,42.2595 231.434,37.4262 226.5,33C 203.929,14.7143 178.262,3.54767 149.5,-0.5 Z"/></g>
<g><path style="opacity:1" fill="#444248" d="M 17.5,157.5 C 17.0825,158.222 16.4158,158.722 15.5,159C 17.1667,159.333 18.8333,159.667 20.5,160C 19.5842,160.278 18.9175,160.778 18.5,161.5C 17.1667,161.5 15.8333,161.5 14.5,161.5C 14.5792,160.07 14.2458,158.736 13.5,157.5C 14.6998,156.708 16.0331,156.708 17.5,157.5 Z"/></g>
<g><path style="opacity:1" fill="#393041" d="M 109.5,149.5 C 110.167,149.5 110.833,149.5 111.5,149.5C 111.5,149.833 111.5,150.167 111.5,150.5C 111.5,151.167 111.833,151.5 112.5,151.5C 112.421,152.93 112.754,154.264 113.5,155.5C 118.792,156.495 124.125,156.828 129.5,156.5C 124.319,157.167 118.985,157.833 113.5,158.5C 113.624,159.107 113.957,159.44 114.5,159.5C 114.198,162.059 114.532,164.393 115.5,166.5C 115.366,168.292 115.699,169.958 116.5,171.5C 115.209,172.542 115.209,173.708 116.5,175C 115.956,175.717 115.289,176.217 114.5,176.5C 112.676,167.535 111.009,158.535 109.5,149.5 Z"/></g>
<g><path style="opacity:1" fill="#3b3a3c" d="M 255.5,162.5 C 257.925,162.684 257.925,163.351 255.5,164.5C 256.167,165.167 256.833,165.833 257.5,166.5C 255.833,167.666 254.166,167.666 252.5,166.5C 253.684,165.312 253.684,164.145 252.5,163C 253.448,162.517 254.448,162.351 255.5,162.5 Z"/></g>
<g><path style="opacity:1" fill="#808082" d="M 255.5,162.5 C 254.448,162.351 253.448,162.517 252.5,163C 253.684,164.145 253.684,165.312 252.5,166.5C 251.704,164.154 251.704,161.988 252.5,160C 254.337,158.52 256.337,158.52 258.5,160C 256.881,160.236 255.881,161.069 255.5,162.5 Z"/></g>
<g><path style="opacity:1" fill="#272c7b" d="M 114.5,159.5 C 117.572,159.183 120.572,159.516 123.5,160.5C 121.229,161.363 118.895,161.363 116.5,160.5C 116.421,161.93 116.754,163.264 117.5,164.5C 121.12,165.293 124.787,165.293 128.5,164.5C 127.737,165.268 126.737,165.768 125.5,166C 122.183,166.498 118.85,166.665 115.5,166.5C 114.532,164.393 114.198,162.059 114.5,159.5 Z"/></g>
<g><path style="opacity:1" fill="#616063" d="M 259.5,164.5 C 260.386,163.224 261.386,163.224 262.5,164.5C 261.652,166.283 260.319,166.783 258.5,166C 259.167,165.667 259.833,165.333 260.5,165C 260.272,164.601 259.938,164.435 259.5,164.5 Z"/></g>
<g><path style="opacity:1" fill="#b9251d" d="M 143.5,170.5 C 142.325,170.719 141.325,170.386 140.5,169.5C 141.993,168.859 142.993,167.859 143.5,166.5C 148.764,163.071 153.264,158.738 157,153.5C 154.995,161.02 150.495,166.687 143.5,170.5 Z"/></g>
<g><path style="opacity:1" fill="#646466" d="M 18.5,161.5 C 21.317,161.801 21.9837,163.134 20.5,165.5C 21.8333,168.5 23.1667,171.5 24.5,174.5C 23.675,175.386 22.675,175.719 21.5,175.5C 21.762,174.022 21.4287,172.689 20.5,171.5C 19.2322,172.428 17.8989,172.595 16.5,172C 17.8333,171 17.8333,170 16.5,169C 19.2764,167.221 18.9431,166.221 15.5,166C 16.7588,165.077 18.0921,164.243 19.5,163.5C 19.1373,162.817 18.8039,162.15 18.5,161.5 Z"/></g>
<g><path style="opacity:1" fill="#bc1b14" d="M 136.5,169.5 C 137.995,169.415 138.995,170.081 139.5,171.5C 136.97,172.132 134.637,173.132 132.5,174.5C 131.438,172.978 130.771,171.312 130.5,169.5C 132.283,165.94 133.283,165.94 133.5,169.5C 134.5,169.5 135.5,169.5 136.5,169.5 Z"/></g>
<g><path style="opacity:1" fill="#676768" d="M 248.5,169.5 C 251.151,170.49 253.817,171.49 256.5,172.5C 255.966,174.614 254.966,176.448 253.5,178C 257.508,178.49 258.175,179.99 255.5,182.5C 254.289,181.726 254.289,180.893 255.5,180C 253.246,178.85 250.913,178.516 248.5,179C 253.433,181.381 253.6,184.214 249,187.5C 247.838,186.813 246.672,186.647 245.5,187C 246.759,187.923 248.092,188.757 249.5,189.5C 247.022,190.607 245.022,189.941 243.5,187.5C 243.709,186.914 244.043,186.414 244.5,186C 246.424,185.821 248.091,185.654 249.5,185.5C 248.91,184.201 247.91,183.368 246.5,183C 247.833,182.667 249.167,182.333 250.5,182C 248.82,181.653 247.82,180.653 247.5,179C 248.856,177.433 249.523,175.6 249.5,173.5C 250.822,173.33 251.989,173.663 253,174.5C 253.5,174 254,173.5 254.5,173C 251.653,172.056 249.153,172.556 247,174.5C 246.387,172.505 246.887,170.838 248.5,169.5 Z"/></g>
<g><path style="opacity:1" fill="#c71308" d="M 117.5,171.5 C 120.5,171.5 123.5,171.5 126.5,171.5C 127.833,171.5 128.5,172.167 128.5,173.5C 127.833,173.833 127.167,174.167 126.5,174.5C 123.5,174.5 120.5,174.5 117.5,174.5C 117.5,173.5 117.5,172.5 117.5,171.5 Z"/></g>
<g><path style="opacity:1" fill="#791d17" d="M 143.5,166.5 C 142.993,167.859 141.993,168.859 140.5,169.5C 141.325,170.386 142.325,170.719 143.5,170.5C 139.226,174.042 134.226,176.042 128.5,176.5C 128.5,175.5 128.5,174.5 128.5,173.5C 128.5,172.167 127.833,171.5 126.5,171.5C 127.514,170.326 128.847,169.66 130.5,169.5C 130.771,171.312 131.438,172.978 132.5,174.5C 134.637,173.132 136.97,172.132 139.5,171.5C 138.995,170.081 137.995,169.415 136.5,169.5C 138.649,168.264 140.982,167.264 143.5,166.5 Z"/></g>
<g><path style="opacity:1" fill="#781918" d="M 116.5,171.5 C 116.833,171.5 117.167,171.5 117.5,171.5C 117.5,172.5 117.5,173.5 117.5,174.5C 120.5,174.5 123.5,174.5 126.5,174.5C 122.833,177.457 118.833,178.123 114.5,176.5C 115.289,176.217 115.956,175.717 116.5,175C 115.209,173.708 115.209,172.542 116.5,171.5 Z"/></g>
<g><path style="opacity:1" fill="#525254" d="M 20.5,177.5 C 23.0448,177.151 25.0448,177.984 26.5,180C 23.6264,180.738 20.9597,181.904 18.5,183.5C 16.3411,182.215 15.6745,180.548 16.5,178.5C 18.901,181.413 20.2343,181.079 20.5,177.5 Z"/></g>
<g><path style="opacity:1" fill="#67628f" d="M 123.5,184.5 C 127.981,183.352 132.648,183.185 137.5,184C 138.357,184.689 139.023,185.522 139.5,186.5C 137.604,187.466 135.604,187.799 133.5,187.5C 133.5,186.5 133.5,185.5 133.5,184.5C 131.379,184.325 129.379,184.659 127.5,185.5C 126.432,184.566 125.099,184.232 123.5,184.5 Z"/></g>
<g><path style="opacity:1" fill="#5f598b" d="M 156.5,183.5 C 156.5,184.167 156.167,184.5 155.5,184.5C 153.801,184.34 152.134,184.506 150.5,185C 148.626,187.455 146.293,187.955 143.5,186.5C 143.977,185.522 144.643,184.689 145.5,184C 149.152,183.501 152.818,183.335 156.5,183.5 Z"/></g>
<g><path style="opacity:1" fill="#fcfdfd" d="M -0.5,151.5 C 1.95358,163.222 5.12025,174.889 9,186.5C 30.3445,236.26 67.8445,264.927 121.5,272.5C 121.5,272.833 121.5,273.167 121.5,273.5C 80.8333,273.5 40.1667,273.5 -0.5,273.5C -0.5,232.833 -0.5,192.167 -0.5,151.5 Z"/></g>
<g><path style="opacity:1" fill="#8682b0" d="M 101.5,184.5 C 106.37,183.196 111.37,183.196 116.5,184.5C 117.487,187.768 117.82,191.102 117.5,194.5C 115.5,194.5 113.5,194.5 111.5,194.5C 111.5,191.5 111.5,188.5 111.5,185.5C 109.167,185.5 106.833,185.5 104.5,185.5C 104.5,187.833 104.5,190.167 104.5,192.5C 103.007,191.688 102.34,190.355 102.5,188.5C 102.57,187.228 102.903,186.062 103.5,185C 102.906,184.536 102.239,184.369 101.5,184.5 Z"/></g>
<g><path style="opacity:1" fill="#a59fca" d="M 156.5,183.5 C 157.919,182.549 159.585,182.216 161.5,182.5C 161.5,185.833 161.5,189.167 161.5,192.5C 161.167,192.5 160.833,192.5 160.5,192.5C 159.214,189.665 159.214,186.832 160.5,184C 159.207,183.51 157.873,183.343 156.5,183.5 Z"/></g>
<g><path style="opacity:1" fill="#5e89ab" d="M 269.5,108.5 C 276.022,137.58 273.188,165.913 261,193.5C 238.609,239.281 202.109,265.281 151.5,271.5C 160.353,269.283 169.353,267.116 178.5,265C 186.951,261.608 195.284,257.941 203.5,254C 256.453,219.904 278.453,171.404 269.5,108.5 Z"/></g>
<g><path style="opacity:1" fill="#606062" d="M 26.5,188.5 C 26.5299,187.503 26.0299,186.836 25,186.5C 23.899,187.291 23.0656,187.291 22.5,186.5C 24.7092,185.937 26.2092,184.604 27,182.5C 27.2735,184.329 28.1068,185.829 29.5,187C 28.7562,188.039 27.7562,188.539 26.5,188.5 Z"/></g>
<g><path style="opacity:1" fill="#0b072d" d="M 112.5,184.5 C 113.892,187.212 115.225,190.046 116.5,193C 115.207,193.49 113.873,193.657 112.5,193.5C 112.5,190.5 112.5,187.5 112.5,184.5 Z"/></g>
<g><path style="opacity:1" fill="#9c9ac7" d="M 175.5,192.5 C 173.836,191.051 173.002,189.051 173,186.5C 172.184,185.177 171.017,184.511 169.5,184.5C 168.044,183.123 169.711,183.123 174.5,184.5C 175.48,187.086 175.813,189.753 175.5,192.5 Z"/></g>
<g><path style="opacity:1" fill="#a19bcc" d="M 75.5,184.5 C 77.2646,183.539 79.2646,183.205 81.5,183.5C 81.8128,187.042 81.4794,190.375 80.5,193.5C 79.0071,191.089 78.0071,188.422 77.5,185.5C 77.0431,184.702 76.3764,184.369 75.5,184.5 Z"/></g>
<g><path style="opacity:1" fill="#1a1a47" d="M 156.5,183.5 C 157.873,183.343 159.207,183.51 160.5,184C 159.214,186.832 159.214,189.665 160.5,192.5C 159.432,193.434 158.099,193.768 156.5,193.5C 156.5,192.167 156.5,190.833 156.5,189.5C 149.833,189.167 149.833,188.833 156.5,188.5C 156.567,187.041 156.234,185.708 155.5,184.5C 156.167,184.5 156.5,184.167 156.5,183.5 Z"/></g>
<g><path style="opacity:1" fill="#9998b7" d="M 192.5,184.5 C 194.265,183.539 196.265,183.205 198.5,183.5C 198.5,187.167 198.5,190.833 198.5,194.5C 195.5,194.5 192.5,194.5 189.5,194.5C 189.5,194.167 189.5,193.833 189.5,193.5C 190.391,192.89 191.391,192.557 192.5,192.5C 193.946,193.613 195.613,193.78 197.5,193C 195.879,190.834 195.045,188.334 195,185.5C 194.329,184.748 193.496,184.414 192.5,184.5 Z"/></g>
<g><path style="opacity:1" fill="#131843" d="M 63.5,184.5 C 64.8734,184.343 66.2068,184.51 67.5,185C 66.1857,187.605 66.1857,190.105 67.5,192.5C 66.4324,193.434 65.099,193.768 63.5,193.5C 63.5,190.5 63.5,187.5 63.5,184.5 Z"/></g>
<g><path style="opacity:1" fill="#1b193e" d="M 94.5,194.5 C 92.8333,194.5 91.1667,194.5 89.5,194.5C 89.5,191.5 89.5,188.5 89.5,185.5C 90.0768,184.227 90.7435,184.227 91.5,185.5C 92.1298,188.688 93.1298,191.688 94.5,194.5 Z"/></g>
<g><path style="opacity:1" fill="#a6a4ce" d="M 94.5,194.5 C 93.1298,191.688 92.1298,188.688 91.5,185.5C 90.7435,184.227 90.0768,184.227 89.5,185.5C 88.234,184.91 86.9007,184.41 85.5,184C 94.7005,182.124 97.7005,185.624 94.5,194.5 Z"/></g>
<g><path style="opacity:1" fill="#201d4c" d="M 169.5,184.5 C 171.017,184.511 172.184,185.177 173,186.5C 173.002,189.051 173.836,191.051 175.5,192.5C 174.448,194.256 172.781,194.923 170.5,194.5C 170.747,191.061 170.414,187.728 169.5,184.5 Z"/></g>
<g><path style="opacity:1" fill="#a19fc9" d="M 180.5,184.5 C 181.919,183.549 183.585,183.216 185.5,183.5C 185.5,186.833 185.5,190.167 185.5,193.5C 183.974,192.508 183.307,191.008 183.5,189C 185.757,185.265 184.757,183.765 180.5,184.5 Z"/></g>
<g><path style="opacity:1" fill="#a5a2d1" d="M 63.5,184.5 C 64.9187,183.549 66.5853,183.216 68.5,183.5C 68.5,186.5 68.5,189.5 68.5,192.5C 68.1667,192.5 67.8333,192.5 67.5,192.5C 66.1857,190.105 66.1857,187.605 67.5,185C 66.2068,184.51 64.8734,184.343 63.5,184.5 Z"/></g>
<g><path style="opacity:1" fill="#19163d" d="M 75.5,184.5 C 76.3764,184.369 77.0431,184.702 77.5,185.5C 78.0071,188.422 79.0071,191.089 80.5,193.5C 77.5701,194.299 74.5701,194.632 71.5,194.5C 71.5,194.167 71.5,193.833 71.5,193.5C 72.8333,193.5 74.1667,193.5 75.5,193.5C 75.5,190.5 75.5,187.5 75.5,184.5 Z"/></g>
<g><path style="opacity:1" fill="#7b7b83" d="M 63.5,184.5 C 63.5,187.5 63.5,190.5 63.5,193.5C 65.099,193.768 66.4324,193.434 67.5,192.5C 67.8333,192.5 68.1667,192.5 68.5,192.5C 69.609,192.557 70.609,192.89 71.5,193.5C 71.5,193.833 71.5,194.167 71.5,194.5C 68.5,194.5 65.5,194.5 62.5,194.5C 62.1872,190.958 62.5206,187.625 63.5,184.5 Z"/></g>
<g><path style="opacity:1" fill="#9493c3" d="M 134.5,189.5 C 138.517,188.839 139.851,190.172 138.5,193.5C 137.167,192.167 135.833,190.833 134.5,189.5 Z"/></g>
<g><path style="opacity:1" fill="#404243" d="M 241.5,193.5 C 241.648,189.445 242.648,188.945 244.5,192C 243.756,193.039 242.756,193.539 241.5,193.5 Z"/></g>
<g><path style="opacity:1" fill="#55555b" d="M 26.5,188.5 C 25.9489,192.035 27.1156,192.368 30,189.5C 30.4643,190.094 30.631,190.761 30.5,191.5C 27.9028,191.721 27.9028,192.221 30.5,193C 29.2568,194.816 29.5901,196.316 31.5,197.5C 30.5041,197.414 29.6708,197.748 29,198.5C 27.2948,195.591 25.4614,192.758 23.5,190C 24.2438,188.961 25.2438,188.461 26.5,188.5 Z"/></g>
<g><path style="opacity:1" fill="#1a1939" d="M 101.5,184.5 C 102.239,184.369 102.906,184.536 103.5,185C 102.903,186.062 102.57,187.228 102.5,188.5C 102.34,190.355 103.007,191.688 104.5,192.5C 105.609,193.29 106.942,193.79 108.5,194C 105.469,194.495 102.469,194.329 99.5,193.5C 98.9455,189.988 99.6122,186.988 101.5,184.5 Z"/></g>
<g><path style="opacity:1" fill="#1f1d44" d="M 180.5,184.5 C 184.757,183.765 185.757,185.265 183.5,189C 183.307,191.008 183.974,192.508 185.5,193.5C 186.833,193.5 188.167,193.5 189.5,193.5C 189.5,193.833 189.5,194.167 189.5,194.5C 181.633,195.81 178.633,192.476 180.5,184.5 Z"/></g>
<g><path style="opacity:1" fill="#16153b" d="M 192.5,184.5 C 193.496,184.414 194.329,184.748 195,185.5C 195.045,188.334 195.879,190.834 197.5,193C 195.613,193.78 193.946,193.613 192.5,192.5C 192.5,189.833 192.5,187.167 192.5,184.5 Z"/></g>
<g><path style="opacity:1" fill="#99989a" d="M 35.5,195.5 C 36.4339,197.239 36.4339,198.905 35.5,200.5C 32.1512,201.83 31.8179,201.33 34.5,199C 33.9558,198.283 33.2891,197.783 32.5,197.5C 32.1667,197.5 31.8333,197.5 31.5,197.5C 29.5901,196.316 29.2568,194.816 30.5,193C 27.9028,192.221 27.9028,191.721 30.5,191.5C 32.5065,192.679 32.8398,192.179 31.5,190C 34.806,190.041 36.1393,191.874 35.5,195.5 Z"/></g>
<g><path style="opacity:1" fill="#2d2851" d="M 123.5,184.5 C 125.099,184.232 126.432,184.566 127.5,185.5C 129.046,187.931 131.379,189.264 134.5,189.5C 135.833,190.833 137.167,192.167 138.5,193.5C 134.204,194.463 129.871,194.629 125.5,194C 122.193,192.805 122.027,191.972 125,191.5C 127.679,192.895 130.512,193.561 133.5,193.5C 133.5,192.5 133.5,191.5 133.5,190.5C 130.157,189.776 126.824,188.943 123.5,188C 122.316,186.855 122.316,185.688 123.5,184.5 Z"/></g>
<g><path style="opacity:1" fill="#625f84" d="M 160.5,192.5 C 160.833,192.5 161.167,192.5 161.5,192.5C 161.5,193.833 161.5,195.167 161.5,196.5C 155.824,196.666 150.157,196.499 144.5,196C 148.041,194.984 151.541,194.817 155,195.5C 156.03,195.164 156.53,194.497 156.5,193.5C 158.099,193.768 159.432,193.434 160.5,192.5 Z"/></g>
<g><path style="opacity:1" fill="#5b5a5d" d="M 241.5,193.5 C 242.588,195 243.921,196.333 245.5,197.5C 245.167,197.833 244.833,198.167 244.5,198.5C 243.116,195.867 241.782,195.867 240.5,198.5C 243.227,202.269 242.727,202.935 239,200.5C 236.936,203.341 236.269,203.008 237,199.5C 238.765,197.608 240.265,195.608 241.5,193.5 Z"/></g>
<g><path style="opacity:1" fill="#e8e7ec" d="M 162.5,206.5 C 160.61,206.297 159.11,206.963 158,208.5C 157.586,208.043 157.086,207.709 156.5,207.5C 155.516,210.428 155.183,213.428 155.5,216.5C 154.683,214.031 154.183,211.365 154,208.5C 153.667,211.5 153.333,214.5 153,217.5C 151.23,218.276 149.397,218.11 147.5,217C 146.712,213.924 146.212,210.758 146,207.5C 145.819,210.695 145.319,213.695 144.5,216.5C 142.833,219.167 141.167,219.167 139.5,216.5C 140.055,212.988 139.388,209.988 137.5,207.5C 135.735,210.123 135.068,213.123 135.5,216.5C 134.5,216.5 133.5,216.5 132.5,216.5C 132.784,213.223 132.451,210.057 131.5,207C 133.833,206.667 136.167,206.333 138.5,206C 137.747,204.513 136.914,204.346 136,205.5C 133.899,203.614 132.399,201.947 131.5,200.5C 128.053,201.568 126.386,203.568 126.5,206.5C 127.28,209.19 127.28,212.19 126.5,215.5C 125.35,213.237 124.35,210.904 123.5,208.5C 122.706,210.856 123.039,213.189 124.5,215.5C 125.689,216.429 127.022,216.762 128.5,216.5C 127.418,218.339 126.585,220.339 126,222.5C 124.333,221.167 122.667,221.167 121,222.5C 119.903,220.947 118.57,219.614 117,218.5C 116.667,218.833 116.333,219.167 116,219.5C 114.915,218.707 113.748,218.04 112.5,217.5C 112.55,218.848 112.217,220.348 111.5,222C 110.223,222.127 109.057,221.627 108,220.5C 106.715,220.95 105.548,221.617 104.5,222.5C 103.019,221.52 101.685,220.353 100.5,219C 101.167,218.667 101.833,218.333 102.5,218C 101.263,217.768 100.263,217.268 99.5,216.5C 98.8333,216.5 98.1667,216.5 97.5,216.5C 98.0545,212.988 97.3878,209.988 95.5,207.5C 94.0277,209.776 93.0277,212.776 92.5,216.5C 92.81,213.287 92.4767,210.287 91.5,207.5C 89.5112,206.113 87.6779,206.447 86,208.5C 85.2042,211.039 85.3709,213.372 86.5,215.5C 87.1667,216.167 87.8333,216.833 88.5,217.5C 86.7837,219.609 84.617,221.275 82,222.5C 81.1667,222.167 80.3333,221.833 79.5,221.5C 80.8333,220.5 82.1667,219.5 83.5,218.5C 82.6086,217.41 81.6086,217.41 80.5,218.5C 79.7025,218.043 79.3691,217.376 79.5,216.5C 80.5,216.5 81.5,216.5 82.5,216.5C 82.8174,213.428 82.4841,210.428 81.5,207.5C 80.52,210.086 80.1866,212.753 80.5,215.5C 79.5,215.5 78.5,215.5 77.5,215.5C 76.8333,204.833 76.1667,204.833 75.5,215.5C 74.6829,213.031 74.1829,210.365 74,207.5C 73.0272,210.579 72.1939,213.579 71.5,216.5C 71.8168,212.298 71.4834,208.298 70.5,204.5C 68.8008,204.66 67.1341,204.494 65.5,204C 66.448,203.517 67.448,203.351 68.5,203.5C 68.5,202.5 68.5,201.5 68.5,200.5C 66.712,200.785 65.0453,200.452 63.5,199.5C 108.163,198.333 152.83,198.167 197.5,199C 184.838,199.5 172.171,199.667 159.5,199.5C 159.5,200.833 159.5,202.167 159.5,203.5C 162.567,203.121 163.567,204.121 162.5,206.5 Z"/></g>
<g><path style="opacity:1" fill="#6a696e" d="M 35.5,195.5 C 39.6455,196.444 40.3121,198.444 37.5,201.5C 38.3372,203.844 39.6706,205.844 41.5,207.5C 39.5247,208.275 38.6913,209.609 39,211.5C 39.8373,209.993 41.0039,209.493 42.5,210C 40.9632,211.11 40.2965,212.61 40.5,214.5C 36.2871,213.364 35.6204,211.197 38.5,208C 36.8925,208.019 35.2259,208.185 33.5,208.5C 33.178,206.278 33.8446,204.444 35.5,203C 34.0039,202.493 32.8373,202.993 32,204.5C 30.9164,203.335 30.0831,202.002 29.5,200.5C 30.9935,199.859 31.9935,198.859 32.5,197.5C 33.2891,197.783 33.9558,198.283 34.5,199C 31.8179,201.33 32.1512,201.83 35.5,200.5C 36.4339,198.905 36.4339,197.239 35.5,195.5 Z"/></g>
<g><path style="opacity:1" fill="#555269" d="M 108.5,212.5 C 105.034,211.891 104.034,210.058 105.5,207C 107.112,206.28 108.612,206.446 110,207.5C 110.688,208.332 110.521,208.998 109.5,209.5C 108.833,208.833 108.167,208.167 107.5,207.5C 106.348,209.397 106.681,211.064 108.5,212.5 Z"/></g>
<g><path style="opacity:1" fill="#83868b" d="M 191.5,207.5 C 193.167,206.167 194.833,206.167 196.5,207.5C 195.833,207.5 195.5,207.833 195.5,208.5C 194.5,208.5 193.5,208.5 192.5,208.5C 192.5,207.833 192.167,207.5 191.5,207.5 Z"/></g>
<g><path style="opacity:1" fill="#4c4c4e" d="M 234.5,202.5 C 237.982,203.185 238.648,204.519 236.5,206.5C 236.977,207.478 237.643,208.311 238.5,209C 234.211,208.731 232.877,206.564 234.5,202.5 Z"/></g>
<g><path style="opacity:1" fill="#3c3862" d="M 180.5,206.5 C 181.479,209.625 181.813,212.958 181.5,216.5C 179.5,216.5 177.5,216.5 175.5,216.5C 174.306,211.475 175.972,208.142 180.5,206.5 Z"/></g>
<g><path style="opacity:1" fill="#9895af" d="M 91.5,207.5 C 91.1667,207.5 90.8333,207.5 90.5,207.5C 89.5028,207.47 88.8361,207.97 88.5,209C 89.3862,211.112 89.3862,213.278 88.5,215.5C 87.71,214.391 87.21,213.058 87,211.5C 86.51,212.793 86.3433,214.127 86.5,215.5C 85.3709,213.372 85.2042,211.039 86,208.5C 87.6779,206.447 89.5112,206.113 91.5,207.5 Z"/></g>
<g><path style="opacity:1" fill="#434262" d="M 95.5,207.5 C 97.3878,209.988 98.0545,212.988 97.5,216.5C 95.6122,214.012 94.9455,211.012 95.5,207.5 Z"/></g>
<g><path style="opacity:1" fill="#4e4774" d="M 99.5,216.5 C 99.1826,213.428 99.5159,210.428 100.5,207.5C 100.833,209 101.167,210.5 101.5,212C 101.431,213.986 100.765,215.486 99.5,216.5 Z"/></g>
<g><path style="opacity:1" fill="#4a466a" d="M 144.5,216.5 C 143.235,215.486 142.569,213.986 142.5,212C 142.833,210.5 143.167,209 143.5,207.5C 144.484,210.428 144.817,213.428 144.5,216.5 Z"/></g>
<g><path style="opacity:1" fill="#d1d3e1" d="M 177.5,209.5 C 179.913,210.68 180.913,212.68 180.5,215.5C 179.167,215.5 177.833,215.5 176.5,215.5C 176.325,213.379 176.659,211.379 177.5,209.5 Z"/></g>
<g><path style="opacity:1" fill="#494465" d="M 62.5,207.5 C 63.7647,208.514 64.4313,210.014 64.5,212C 64.3333,213.5 64.1667,215 64,216.5C 62.6081,213.722 62.1081,210.722 62.5,207.5 Z"/></g>
<g><path style="opacity:1" fill="#e4e4e7" d="M 90.5,207.5 C 91.388,210.054 91.7214,212.721 91.5,215.5C 90.5,215.5 89.5,215.5 88.5,215.5C 89.3862,213.278 89.3862,211.112 88.5,209C 88.8361,207.97 89.5028,207.47 90.5,207.5 Z"/></g>
<g><path style="opacity:1" fill="#555458" d="M 40.5,214.5 C 41.552,214.649 42.552,214.483 43.5,214C 42.5411,211.31 43.2078,210.976 45.5,213C 44.6948,214.972 43.3615,216.472 41.5,217.5C 40.6143,216.675 40.281,215.675 40.5,214.5 Z"/></g>
<g><path style="opacity:1" fill="#39345f" d="M 116.5,207.5 C 117.189,206.226 118.023,206.226 119,207.5C 119.498,210.482 119.665,213.482 119.5,216.5C 114.959,216.457 113.125,214.124 114,209.5C 115,211.5 116,213.5 117,215.5C 117.801,212.633 117.634,209.966 116.5,207.5 Z"/></g>
<g><path style="opacity:1" fill="#362f5b" d="M 137.5,207.5 C 139.388,209.988 140.055,212.988 139.5,216.5C 137.612,214.012 136.945,211.012 137.5,207.5 Z"/></g>
<g><path style="opacity:1" fill="#211e3c" d="M 184.5,207.5 C 185.189,206.226 186.023,206.226 187,207.5C 187.667,210.5 187.667,213.5 187,216.5C 186.667,213.833 186.333,211.167 186,208.5C 185.617,207.944 185.117,207.611 184.5,207.5 Z"/></g>
<g><path style="opacity:1" fill="#35315c" d="M 196.5,207.5 C 197.803,210.355 197.803,213.355 196.5,216.5C 195.52,213.914 195.187,211.247 195.5,208.5C 195.5,207.833 195.833,207.5 196.5,207.5 Z"/></g>
<g><path style="opacity:1" fill="#575759" d="M 224.5,218.5 C 226.141,215.7 227.808,212.867 229.5,210C 231.387,209.837 232.887,210.671 234,212.5C 234.688,213.332 234.521,213.998 233.5,214.5C 228.998,212.528 228.665,213.362 232.5,217C 231.004,217.507 229.837,217.007 229,215.5C 229.195,217.126 229.195,218.793 229,220.5C 227.89,218.963 226.39,218.297 224.5,218.5 Z"/></g>
<g><path style="opacity:1" fill="#484267" d="M 79.5,216.5 C 77.901,216.768 76.5676,216.434 75.5,215.5C 76.1667,204.833 76.8333,204.833 77.5,215.5C 78.5,215.5 79.5,215.5 80.5,215.5C 80.1866,212.753 80.52,210.086 81.5,207.5C 82.4841,210.428 82.8174,213.428 82.5,216.5C 81.5,216.5 80.5,216.5 79.5,216.5 Z"/></g>
<g><path style="opacity:1" fill="#5b5772" d="M 150.5,207.5 C 151.765,208.514 152.431,210.014 152.5,212C 152.167,213.5 151.833,215 151.5,216.5C 150.516,213.572 150.183,210.572 150.5,207.5 Z"/></g>
<g><path style="opacity:1" fill="#464161" d="M 191.5,207.5 C 192.167,207.5 192.5,207.833 192.5,208.5C 192.042,211.394 192.709,213.894 194.5,216C 193.675,217.688 192.675,217.855 191.5,216.5C 190.197,213.355 190.197,210.355 191.5,207.5 Z"/></g>
<g><path style="opacity:1" fill="#4a4669" d="M 162.5,206.5 C 162.82,209.898 162.487,213.232 161.5,216.5C 160.526,214.257 160.192,211.924 160.5,209.5C 159.5,209.5 158.5,209.5 157.5,209.5C 158.01,212.388 157.344,214.721 155.5,216.5C 155.183,213.428 155.516,210.428 156.5,207.5C 157.086,207.709 157.586,208.043 158,208.5C 159.11,206.963 160.61,206.297 162.5,206.5 Z"/></g>
<g><path style="opacity:1" fill="#3c3b4e" d="M 70.5,204.5 C 71.4834,208.298 71.8168,212.298 71.5,216.5C 69.8333,216.5 68.1667,216.5 66.5,216.5C 66.63,208.035 67.63,207.701 69.5,215.5C 70.4892,211.893 70.8226,208.226 70.5,204.5 Z"/></g>
<g><path style="opacity:1" fill="#312b4d" d="M 126.5,206.5 C 127.117,206.611 127.617,206.944 128,207.5C 128.498,210.482 128.665,213.482 128.5,216.5C 127.022,216.762 125.689,216.429 124.5,215.5C 123.039,213.189 122.706,210.856 123.5,208.5C 124.35,210.904 125.35,213.237 126.5,215.5C 127.28,212.19 127.28,209.19 126.5,206.5 Z"/></g>
<g><path style="opacity:1" fill="#413f55" d="M 170.5,207.5 C 172.388,209.988 173.055,212.988 172.5,216.5C 167.341,216.864 165.508,214.53 167,209.5C 169.551,217.091 170.718,216.425 170.5,207.5 Z"/></g>
<g><path style="opacity:1" fill="#4f467b" d="M 90.5,207.5 C 90.8333,207.5 91.1667,207.5 91.5,207.5C 92.4767,210.287 92.81,213.287 92.5,216.5C 91.2921,217.234 89.9587,217.567 88.5,217.5C 87.8333,216.833 87.1667,216.167 86.5,215.5C 86.3433,214.127 86.51,212.793 87,211.5C 87.21,213.058 87.71,214.391 88.5,215.5C 89.5,215.5 90.5,215.5 91.5,215.5C 91.7214,212.721 91.388,210.054 90.5,207.5 Z"/></g>
<g><path style="opacity:1" fill="#585670" d="M 108.5,212.5 C 111.284,214.553 110.951,216.219 107.5,217.5C 105.276,216.919 104.443,215.586 105,213.5C 105.71,214.973 106.876,215.64 108.5,215.5C 108.5,214.5 108.5,213.5 108.5,212.5 Z"/></g>
<g><path style="opacity:1" fill="#4b4b4e" d="M 47.5,219.5 C 44.6055,221.859 43.7721,220.859 45,216.5C 45.3333,217.167 45.6667,217.833 46,218.5C 46.4273,215.507 47.5939,215.007 49.5,217C 48.6195,217.708 47.9528,218.542 47.5,219.5 Z"/></g>
<g><path style="opacity:1" fill="#3c3c3d" d="M 224.5,218.5 C 225.29,219.794 226.29,220.961 227.5,222C 226.906,222.464 226.239,222.631 225.5,222.5C 224.859,221.518 224.193,220.518 223.5,219.5C 223.624,218.893 223.957,218.56 224.5,218.5 Z"/></g>
<g><path style="opacity:1" fill="#5c5c5e" d="M 47.5,219.5 C 48.2679,220.263 48.7679,221.263 49,222.5C 49.4828,221.552 49.6495,220.552 49.5,219.5C 53.0687,220.464 55.7353,222.631 57.5,226C 57.3613,227.301 56.6946,228.134 55.5,228.5C 55.2895,225.03 54.1229,225.03 52,228.5C 51.6666,226.953 52.1666,225.62 53.5,224.5C 51.7583,222.027 49.925,222.027 48,224.5C 47.5065,222.866 47.3398,221.199 47.5,219.5 Z"/></g>
<g><path style="opacity:1" fill="#474747" d="M 225.5,222.5 C 225.719,223.675 225.386,224.675 224.5,225.5C 218.946,221.085 219.279,220.085 225.5,222.5 Z"/></g>
<g><path style="opacity:1" fill="#353538" d="M 215.5,224.5 C 218.348,225.17 219.848,226.837 220,229.5C 217.965,227.088 216.965,227.755 217,231.5C 214.174,230.083 214.007,228.583 216.5,227C 214.381,226.658 214.047,225.825 215.5,224.5 Z"/></g>
<g><path style="opacity:1" fill="#545456" d="M 55.5,228.5 C 57.3762,229.258 59.0429,229.258 60.5,228.5C 58.7029,232.767 56.3695,233.267 53.5,230C 54.0442,229.283 54.7109,228.783 55.5,228.5 Z"/></g>
<g><path style="opacity:1" fill="#37363b" d="M 211.5,228.5 C 212.289,228.783 212.956,229.283 213.5,230C 212.903,231.889 212.569,233.722 212.5,235.5C 211.5,233.833 210.167,232.5 208.5,231.5C 209.274,230.289 210.107,230.289 211,231.5C 211.483,230.552 211.649,229.552 211.5,228.5 Z"/></g>
<g><path style="opacity:1" fill="#4c4c4e" d="M 65.5,238.5 C 64.7611,238.631 64.0944,238.464 63.5,238C 64.7112,237.107 64.7112,236.274 63.5,235.5C 62.549,236.326 61.549,236.492 60.5,236C 61.3052,234.028 62.6385,232.528 64.5,231.5C 65.8805,232 66.5472,233 66.5,234.5C 66.1543,235.849 65.821,237.183 65.5,238.5 Z"/></g>
<g><path style="opacity:1" fill="#7c7b7e" d="M 203.5,238.5 C 204.117,238.611 204.617,238.944 205,239.5C 205.624,237.536 205.124,235.869 203.5,234.5C 204.328,233.585 205.328,232.919 206.5,232.5C 207.5,234.167 208.833,235.5 210.5,236.5C 209.095,238.651 207.261,240.318 205,241.5C 203.961,240.756 203.461,239.756 203.5,238.5 Z"/></g>
<g><path style="opacity:1" fill="#3f3f41" d="M 203.5,238.5 C 202.5,238.5 201.5,238.5 200.5,238.5C 201.5,235.833 202.5,235.833 203.5,238.5 Z"/></g>
<g><path style="opacity:1" fill="#504f51" d="M 67.5,237.5 C 68.895,238.648 68.7284,239.648 67,240.5C 66.2828,239.956 65.7828,239.289 65.5,238.5C 66.1667,238.167 66.8333,237.833 67.5,237.5 Z"/></g>
<g><path style="opacity:1" fill="#474648" d="M 79.5,241.5 C 76.5153,240.276 73.8486,240.609 71.5,242.5C 70.5,242 69.5,241.5 68.5,241C 71.5305,237.728 71.1972,236.561 67.5,237.5C 68.8049,233.517 70.1382,233.517 71.5,237.5C 70.9328,241.385 71.9328,241.385 74.5,237.5C 76.21,238.887 77.8767,240.221 79.5,241.5 Z"/></g>
<g><path style="opacity:1" fill="#4b4d50" d="M 191.5,243.5 C 191.415,242.005 192.081,241.005 193.5,240.5C 194.696,240.846 194.696,241.346 193.5,242C 194.448,242.483 195.448,242.649 196.5,242.5C 196.762,243.978 196.429,245.311 195.5,246.5C 194.289,245.726 194.289,244.893 195.5,244C 194.207,243.51 192.873,243.343 191.5,243.5 Z"/></g>
<g><path style="opacity:1" fill="#6b686c" d="M 200.5,238.5 C 201.153,239.807 201.82,241.14 202.5,242.5C 199.835,245.721 197.835,244.888 196.5,240C 197.34,238.829 198.173,237.662 199,236.5C 199.278,237.416 199.778,238.082 200.5,238.5 Z"/></g>
<g><path style="opacity:1" fill="#2e2e34" d="M 73.5,242.5 C 74.9217,242.709 76.255,243.209 77.5,244C 75.2963,246.069 73.963,245.569 73.5,242.5 Z"/></g>
<g><path style="opacity:1" fill="#4b4a4c" d="M 191.5,243.5 C 192.958,249.502 192.292,249.835 189.5,244.5C 188.604,245.506 187.938,245.506 187.5,244.5C 188.689,243.571 190.022,243.238 191.5,243.5 Z"/></g>
<g><path style="opacity:1" fill="#5a5a5c" d="M 89.5,246.5 C 87.6214,246.393 87.2881,246.893 88.5,248C 87.6028,250.127 86.2695,250.627 84.5,249.5C 86.8049,246.789 86.1383,246.122 82.5,247.5C 82.7086,246.078 83.2086,244.745 84,243.5C 84.6036,245.686 85.7703,245.852 87.5,244C 85.0259,241.572 85.5259,241.072 89,242.5C 89.49,243.793 89.6567,245.127 89.5,246.5 Z"/></g>
<g><path style="opacity:1" fill="#4c4c4d" d="M 177.5,247.5 C 176.624,247.631 175.957,247.298 175.5,246.5C 177.385,243.466 179.052,243.299 180.5,246C 179.263,246.232 178.263,246.732 177.5,247.5 Z"/></g>
<g><path style="opacity:1" fill="#464647" d="M 79.5,241.5 C 80.3764,241.369 81.0431,241.702 81.5,242.5C 79.8269,244.761 80.1602,246.428 82.5,247.5C 81.4583,248.791 80.2917,248.791 79,247.5C 79.1349,245.575 79.3016,243.575 79.5,241.5 Z"/></g>
<g><path style="opacity:1" fill="#555457" d="M 168.5,246.5 C 169.012,248.478 169.179,250.812 169,253.5C 168.803,251.139 167.636,249.472 165.5,248.5C 166.602,247.824 167.602,247.158 168.5,246.5 Z"/></g>
<g><path style="opacity:1" fill="#646466" d="M 89.5,246.5 C 90.9311,246.881 91.7645,247.881 92,249.5C 94.0985,247.364 96.4318,247.364 99,249.5C 99.4424,251.684 98.9424,253.684 97.5,255.5C 96.6527,253.939 96.9861,252.439 98.5,251C 95.7825,249.967 93.9492,250.8 93,253.5C 92.7787,250.057 91.7787,249.724 90,252.5C 89.5045,250.527 89.3379,248.527 89.5,246.5 Z"/></g>
<g><path style="opacity:1" fill="#706f72" d="M 177.5,247.5 C 180.348,248.106 182.848,247.106 185,244.5C 189.619,248.698 189.119,251.031 183.5,251.5C 183.719,250.325 183.386,249.325 182.5,248.5C 181.41,249.391 181.41,250.391 182.5,251.5C 181.585,253.98 180.085,254.647 178,253.5C 176.863,254.364 175.53,255.364 174,256.5C 172.885,255 172.052,253.333 171.5,251.5C 172.62,249.404 174.12,249.07 176,250.5C 176.513,249.473 177.013,248.473 177.5,247.5 Z"/></g>
<g><path style="opacity:1" fill="#363638" d="M 102.5,252.5 C 101.624,252.631 100.957,252.298 100.5,251.5C 101.723,250.386 103.056,250.219 104.5,251C 103.584,251.278 102.918,251.778 102.5,252.5 Z"/></g>
<g><path style="opacity:1" fill="#818183" d="M 109.5,253.5 C 108.833,253.5 108.5,253.833 108.5,254.5C 107.849,255.091 107.182,255.757 106.5,256.5C 105.818,255.757 105.151,255.091 104.5,254.5C 104.484,252.516 105.484,251.516 107.5,251.5C 108.713,251.747 109.38,252.414 109.5,253.5 Z"/></g>
<g><path style="opacity:1" fill="#717072" d="M 109.5,253.5 C 112.569,252.486 115.569,251.652 118.5,251C 119.112,253.561 119.279,256.394 119,259.5C 118.667,259.833 118.333,260.167 118,260.5C 117.802,253.297 116.802,252.964 115,259.5C 114.667,257.833 114.333,256.167 114,254.5C 113.902,256.619 113.069,258.286 111.5,259.5C 110.261,257.993 110.595,256.826 112.5,256C 111.429,255.148 110.429,254.315 109.5,253.5 Z"/></g>
<g><path style="opacity:1" fill="#6b6c6d" d="M 102.5,252.5 C 103.434,253.568 103.768,254.901 103.5,256.5C 102.325,256.719 101.325,256.386 100.5,255.5C 101.612,254.735 102.279,253.735 102.5,252.5 Z"/></g>
<g><path style="opacity:1" fill="#48484b" d="M 145.5,254.5 C 146.75,254.577 147.583,255.244 148,256.5C 148.853,254.875 149.853,254.542 151,255.5C 151.667,257.167 151.667,258.833 151,260.5C 150.526,255.373 149.526,255.373 148,260.5C 146.441,258.783 145.608,256.783 145.5,254.5 Z"/></g>
<g><path style="opacity:1" fill="#38383a" d="M 152.5,254.5 C 153.441,257.125 154.607,257.125 156,254.5C 157.44,255.93 157.774,257.597 157,259.5C 155.582,256.999 154.582,257.332 154,260.5C 152.681,258.75 152.181,256.75 152.5,254.5 Z"/></g>
<g><path style="opacity:1" fill="#2a2a2d" d="M 104.5,254.5 C 105.151,255.091 105.818,255.757 106.5,256.5C 107.182,255.757 107.849,255.091 108.5,254.5C 108.5,255.5 108.5,256.5 108.5,257.5C 107.167,257.5 105.833,257.5 104.5,257.5C 104.5,256.5 104.5,255.5 104.5,254.5 Z"/></g>
<g><path style="opacity:1" fill="#3c3638" d="M 122.5,259.5 C 120.668,258.86 120.335,257.86 121.5,256.5C 122.386,257.325 122.719,258.325 122.5,259.5 Z"/></g>
<g><path style="opacity:1" fill="#3d3b3f" d="M 165.5,251.5 C 167.28,252.99 167.946,254.99 167.5,257.5C 166.178,257.33 165.011,257.663 164,258.5C 162.459,256.523 161.959,254.523 162.5,252.5C 163.584,253.665 164.417,254.998 165,256.5C 165.494,254.866 165.66,253.199 165.5,251.5 Z"/></g>
<g><path style="opacity:1" fill="#6f6e71" d="M 132.5,258.5 C 132.5,259.5 132.5,260.5 132.5,261.5C 130.669,260.948 129.003,260.948 127.5,261.5C 126.201,260.91 125.368,259.91 125,258.5C 124.399,260.359 123.566,260.692 122.5,259.5C 123.434,258.432 123.768,257.099 123.5,255.5C 122.448,255.649 121.448,255.483 120.5,255C 123.217,253.967 125.051,254.8 126,257.5C 126.333,256.833 126.667,256.167 127,255.5C 127.542,260.721 128.376,260.721 129.5,255.5C 130.281,256.729 130.781,258.062 131,259.5C 131.383,258.944 131.883,258.611 132.5,258.5 Z"/></g>
<g><path style="opacity:1" fill="#41404a" d="M 105.5,258.5 C 107.225,258.843 107.725,259.843 107,261.5C 105.961,260.756 105.461,259.756 105.5,258.5 Z"/></g>
<g><path style="opacity:1" fill="#7d7e80" d="M 137.5,255.5 C 138.847,256.171 140.014,256.171 141,255.5C 140.651,259.376 141.484,259.376 143.5,255.5C 144.318,257.108 144.985,258.775 145.5,260.5C 143.308,260.532 140.974,260.698 138.5,261C 138.795,259.286 138.462,257.453 137.5,255.5 Z"/></g>
<g><path style="opacity:1" fill="#525555" d="M 156.5,249.5 C 157.552,249.351 158.552,249.517 159.5,250C 159.045,252.951 160.045,255.617 162.5,258C 161.975,258.692 161.308,259.192 160.5,259.5C 159.161,256.116 157.828,252.783 156.5,249.5 Z"/></g>
<g><path style="opacity:1" fill="#2d2c2f" d="M 132.5,261.5 C 132.5,260.5 132.5,259.5 132.5,258.5C 133.263,257.732 134.263,257.232 135.5,257C 131.774,255.957 132.107,255.457 136.5,255.5C 136.662,257.527 136.495,259.527 136,261.5C 135.751,260.376 135.251,259.376 134.5,258.5C 133.494,258.938 133.494,259.604 134.5,260.5C 134.043,261.298 133.376,261.631 132.5,261.5 Z"/></g>
<g><path style="opacity:1" fill="#417fba" d="M 121.5,271.5 C 131.5,271.5 141.5,271.5 151.5,271.5C 151.5,272.167 151.5,272.833 151.5,273.5C 141.5,273.5 131.5,273.5 121.5,273.5C 121.5,273.167 121.5,272.833 121.5,272.5C 121.5,272.167 121.5,271.833 121.5,271.5 Z"/></g>
</svg>
