<?xml version="1.0" standalone="no"?>
<!DOCTYPE svg PUBLIC "-//W3C//DTD SVG 20010904//EN"
 "http://www.w3.org/TR/2001/REC-SVG-20010904/DTD/svg10.dtd">
<svg version="1.0" xmlns="http://www.w3.org/2000/svg"
 width="206.000000pt" height="205.000000pt" viewBox="0 0 206.000000 205.000000"
 preserveAspectRatio="xMidYMid meet">

<g transform="translate(0.000000,205.000000) scale(0.100000,-0.100000)"
fill="#000000" stroke="none">
<path d="M983 2043 c20 -2 54 -2 75 0 20 2 3 4 -38 4 -41 0 -58 -2 -37 -4z"/>
<path d="M893 2033 c9 -2 23 -2 30 0 6 3 -1 5 -18 5 -16 0 -22 -2 -12 -5z"/>
<path d="M1128 2033 c7 -3 16 -2 19 1 4 3 -2 6 -13 5 -11 0 -14 -3 -6 -6z"/>
<path d="M828 2023 c7 -3 16 -2 19 1 4 3 -2 6 -13 5 -11 0 -14 -3 -6 -6z"/>
<path d="M778 2013 c7 -3 16 -2 19 1 4 3 -2 6 -13 5 -11 0 -14 -3 -6 -6z"/>
<path d="M1015 1960 c-9 -54 -32 -101 -75 -155 -17 -22 -34 -52 -37 -67 -3
-15 -10 -25 -15 -22 -5 3 -6 15 -2 26 6 20 5 20 -27 -3 -133 -94 -193 -233
-156 -360 9 -30 23 -63 31 -74 14 -19 15 -17 6 15 -27 95 45 200 205 297 99
60 128 104 123 185 l-3 53 -24 -45 c-13 -25 -48 -68 -77 -97 -38 -36 -54 -59
-54 -77 0 -33 -16 -33 -27 0 l-8 25 -47 -40 c-50 -45 -98 -128 -98 -172 0 -15
-5 -31 -11 -35 -9 -5 -10 9 -7 49 3 43 13 69 41 111 33 50 119 124 138 119 11
-4 88 80 116 125 27 43 36 103 25 152 l-9 35 -8 -45z"/>
<path d="M610 1960 c-8 -5 -10 -10 -5 -10 6 0 17 5 25 10 8 5 11 10 5 10 -5 0
-17 -5 -25 -10z"/>
<path d="M389 1823 c-13 -16 -12 -17 4 -4 9 7 17 15 17 17 0 8 -8 3 -21 -13z"/>
<path d="M1660 1816 c0 -2 8 -10 18 -17 15 -13 16 -12 3 4 -13 16 -21 21 -21
13z"/>
<path d="M300 1743 l-65 -68 68 65 c37 35 67 66 67 67 0 8 -10 -2 -70 -64z"/>
<path d="M1780 1696 c0 -2 8 -10 18 -17 15 -13 16 -12 3 4 -13 16 -21 21 -21
13z"/>
<path d="M1053 1661 c-12 -15 -59 -53 -106 -84 -77 -51 -157 -127 -157 -150 0
-6 18 8 40 29 22 22 74 57 115 78 77 39 103 66 123 124 13 39 12 40 -15 3z"/>
<path d="M219 1653 c-13 -16 -12 -17 4 -4 9 7 17 15 17 17 0 8 -8 3 -21 -13z"/>
<path d="M1145 1628 c-16 -6 -39 -18 -50 -26 l-20 -14 20 7 c47 17 100 25 129
20 68 -14 97 -27 92 -41 -6 -16 10 -19 19 -4 9 14 25 12 26 -2 0 -7 16 -26 35
-42 27 -23 38 -26 47 -17 9 10 8 15 -7 23 -10 6 -27 19 -37 29 -11 11 -24 19
-30 19 -5 0 -7 5 -3 12 5 7 2 9 -8 6 -8 -4 -34 5 -58 18 -45 26 -103 30 -155
12z"/>
<path d="M189 1613 c-13 -16 -12 -17 4 -4 9 7 17 15 17 17 0 8 -8 3 -21 -13z"/>
<path d="M1130 1574 c-68 -13 -119 -37 -156 -75 l-39 -40 70 32 c122 57 239
38 337 -54 l37 -35 15 24 c21 31 20 36 -11 66 -31 30 -72 48 -108 48 -18 0
-23 4 -19 15 4 10 0 15 -12 15 -11 0 -35 2 -54 4 -19 2 -46 2 -60 0z"/>
<path d="M130 1520 c-6 -11 -8 -20 -6 -20 3 0 10 9 16 20 6 11 8 20 6 20 -3 0
-10 -9 -16 -20z"/>
<path d="M1107 1490 c34 -4 84 -18 110 -31 42 -22 101 -83 116 -121 4 -10 8
-10 16 1 12 18 2 37 -41 80 -53 54 -122 81 -198 80 l-65 -2 62 -7z"/>
<path d="M92 1445 c-17 -37 -14 -45 4 -12 9 16 14 31 11 33 -2 2 -9 -7 -15
-21z"/>
<path d="M909 1393 c-13 -16 -12 -17 4 -4 9 7 17 15 17 17 0 8 -8 3 -21 -13z"/>
<path d="M1234 1326 c47 -68 67 -135 60 -194 -6 -47 -35 -111 -67 -144 -29
-31 -27 -32 58 -43 28 -3 62 -8 75 -9 14 -2 37 -7 52 -11 34 -9 41 5 29 55
l-8 35 -8 -27 c-4 -15 -13 -32 -21 -38 -24 -21 -32 -2 -18 49 13 51 10 85 -10
110 -9 12 -8 13 7 8 26 -10 22 47 -8 108 -30 63 -40 74 -95 112 -90 61 -94 60
-46 -11z m90 -103 c22 -64 20 -142 -5 -208 -15 -40 -25 -55 -40 -55 -24 0 -24
-3 6 63 31 67 36 172 11 232 -13 31 -13 35 -2 26 8 -7 22 -33 30 -58z"/>
<path d="M666 1337 c-14 -10 -15 -19 -7 -52 l9 -40 1 36 c1 19 6 40 13 47 17
17 5 24 -16 9z"/>
<path d="M577 1292 c-23 -14 -27 -22 -23 -45 10 -50 37 -96 69 -116 25 -16 28
-21 13 -21 -17 0 -16 -4 10 -31 45 -49 142 -89 211 -88 86 1 111 14 41 22
-142 14 -257 119 -274 250 -7 52 -7 52 -47 29z"/>
<path d="M790 1303 c0 -4 19 -65 42 -135 l42 -128 98 0 c67 0 98 4 98 11 0 9
-25 10 -89 6 l-89 -6 -41 130 c-23 71 -46 129 -51 129 -6 0 -10 -3 -10 -7z"/>
<path d="M31 1264 c0 -11 3 -14 6 -6 3 7 2 16 -1 19 -3 4 -6 -2 -5 -13z"/>
<path d="M498 1249 c-25 -14 -22 -42 7 -77 18 -21 21 -32 13 -35 -21 -7 42
-88 92 -119 50 -31 126 -49 155 -37 18 7 17 8 -5 8 -58 2 -104 24 -153 73 -34
34 -46 52 -38 57 9 6 6 15 -11 34 -13 14 -27 44 -33 66 -9 34 -13 38 -27 30z"/>
<path d="M90 1229 c0 -5 5 -7 10 -4 6 3 10 8 10 11 0 2 -4 4 -10 4 -5 0 -10
-5 -10 -11z"/>
<path d="M129 1231 c11 -7 10 -10 -5 -14 -18 -4 -18 -5 0 -6 12 -1 16 -6 12
-16 -3 -8 -1 -15 4 -15 12 0 23 37 15 50 -3 5 -14 10 -23 10 -14 0 -14 -2 -3
-9z"/>
<path d="M1896 1231 c-10 -15 5 -40 20 -34 8 3 14 0 14 -6 0 -6 -7 -11 -15
-11 -8 0 -15 -4 -15 -9 0 -5 9 -7 20 -4 11 3 20 11 20 18 0 7 6 16 13 19 8 4
7 5 -3 5 -32 -2 -50 1 -50 10 0 5 8 12 18 14 15 4 15 5 0 6 -9 0 -19 -3 -22
-8z"/>
<path d="M21 1214 c0 -11 3 -14 6 -6 3 7 2 16 -1 19 -3 4 -6 -2 -5 -13z"/>
<path d="M1866 1215 c4 -8 8 -15 10 -15 2 0 4 7 4 15 0 8 -4 15 -10 15 -5 0
-7 -7 -4 -15z"/>
<path d="M2021 1184 c0 -11 3 -14 6 -6 3 7 2 16 -1 19 -3 4 -6 -2 -5 -13z"/>
<path d="M110 1177 c0 -10 8 -17 18 -17 9 0 13 4 7 8 -5 4 -13 11 -17 16 -5 5
-8 2 -8 -7z"/>
<path d="M1446 1123 c5 -44 4 -53 -9 -53 -10 0 -13 -6 -10 -20 3 -11 9 -20 13
-20 5 0 16 -3 25 -7 15 -5 16 -3 6 15 -6 11 -11 40 -11 64 0 24 -5 50 -10 58
-7 10 -9 -1 -4 -37z"/>
<path d="M12 1140 c0 -14 2 -19 5 -12 2 6 2 18 0 25 -3 6 -5 1 -5 -13z"/>
<path d="M1926 1145 c4 -8 10 -15 15 -15 5 0 9 7 9 15 0 8 -7 15 -15 15 -9 0
-12 -6 -9 -15z"/>
<path d="M100 1135 c0 -8 5 -15 11 -15 5 0 7 5 3 12 -4 6 -3 8 4 4 6 -3 13 -2
17 4 3 5 -3 10 -14 10 -12 0 -21 -7 -21 -15z"/>
<path d="M1905 1120 c-10 -15 25 -24 38 -10 10 10 7 11 -12 5 -16 -5 -21 -4
-17 4 4 6 5 11 2 11 -3 0 -8 -5 -11 -10z"/>
<path d="M130 1111 c0 -5 -8 -12 -17 -14 -14 -4 -12 -5 5 -6 13 -1 22 5 22 14
0 8 -2 15 -5 15 -3 0 -5 -4 -5 -9z"/>
<path d="M1175 1045 c-44 -106 -129 -164 -249 -173 -51 -4 -70 -1 -77 9 -15
25 -10 27 65 27 83 0 140 20 196 72 19 17 28 28 20 24 -8 -4 -24 -15 -35 -25
-32 -29 -85 -46 -160 -54 -64 -6 -73 -4 -99 16 -26 20 -28 21 -22 3 5 -18 46
-211 46 -220 0 -10 54 -2 82 12 16 9 27 11 24 5 -10 -15 28 -14 68 3 43 18
103 72 123 110 l16 31 -41 -37 c-42 -38 -78 -60 -121 -73 -16 -5 -21 -4 -17 4
10 15 -4 13 -34 -4 -37 -21 -77 -19 -90 5 -10 18 -8 20 24 20 44 0 85 15 114
42 19 19 22 19 22 5 0 -9 4 -17 8 -17 19 0 93 62 116 97 22 34 62 170 53 180
-2 2 -16 -26 -32 -62z"/>
<path d="M3 1025 c0 -38 2 -53 4 -32 2 20 2 52 0 70 -2 17 -4 1 -4 -38z"/>
<path d="M1915 1079 c-4 -6 -4 -13 -1 -16 3 -4 6 -1 6 5 0 6 8 13 18 15 15 4
15 5 0 6 -9 0 -20 -4 -23 -10z"/>
<path d="M103 1073 c9 -2 23 -2 30 0 6 3 -1 5 -18 5 -16 0 -22 -2 -12 -5z"/>
<path d="M2033 1025 c0 -33 2 -45 4 -27 2 18 2 45 0 60 -2 15 -4 0 -4 -33z"/>
<path d="M99 1046 c9 -11 9 -15 -1 -20 -7 -3 -4 -5 7 -3 29 3 33 37 5 37 -18
0 -20 -3 -11 -14z"/>
<path d="M1080 1052 c0 -4 9 -8 20 -9 11 -1 20 2 20 8 0 5 -9 9 -20 9 -11 0
-20 -4 -20 -8z"/>
<path d="M1920 1050 c-8 -5 -11 -13 -6 -17 5 -4 11 -2 13 5 3 6 9 10 14 6 5
-3 9 0 9 5 0 13 -10 14 -30 1z"/>
<path d="M1917 993 c-9 -44 -5 -59 15 -60 10 -1 18 3 18 8 0 6 -4 7 -10 4 -5
-3 -10 -1 -10 4 0 6 6 11 13 12 6 0 3 4 -8 9 l-20 9 20 1 c12 1 15 4 7 7 -10
4 -10 8 -1 19 9 11 8 14 -4 14 -9 0 -18 -12 -20 -27z"/>
<path d="M98 1003 c6 -2 18 -2 25 0 6 3 1 5 -13 5 -14 0 -19 -2 -12 -5z"/>
<path d="M108 983 c6 -2 18 -2 25 0 6 3 1 5 -13 5 -14 0 -19 -2 -12 -5z"/>
<path d="M95 961 c-9 -9 17 -30 31 -24 22 8 17 32 -6 30 -12 -1 -23 -3 -25 -6z
m35 -7 c0 -8 -19 -13 -24 -6 -3 5 1 9 9 9 8 0 15 -2 15 -3z"/>
<path d="M12 910 c0 -14 2 -19 5 -12 2 6 2 18 0 25 -3 6 -5 1 -5 -13z"/>
<path d="M118 923 c-10 -2 -18 -12 -17 -21 0 -11 2 -12 6 -4 2 6 11 12 19 12
8 0 14 5 14 10 0 6 -1 9 -2 9 -2 -1 -11 -3 -20 -6z"/>
<path d="M1929 911 c11 -7 9 -10 -10 -14 -23 -4 -22 -4 4 -6 18 -1 27 4 27 14
0 8 -8 15 -17 15 -15 0 -15 -2 -4 -9z"/>
<path d="M118 873 c-19 -5 -13 -33 8 -33 7 0 18 -8 24 -17 11 -17 11 -17 6 0
-3 10 -6 21 -6 23 0 2 -8 4 -17 4 -16 1 -16 2 1 15 20 15 16 17 -16 8z"/>
<path d="M1912 873 c11 -3 15 -10 11 -21 -5 -13 -3 -14 7 -5 15 14 5 33 -18
32 -16 -1 -16 -2 0 -6z"/>
<path d="M2021 864 c0 -11 3 -14 6 -6 3 7 2 16 -1 19 -3 4 -6 -2 -5 -13z"/>
<path d="M21 834 c0 -11 3 -14 6 -6 3 7 2 16 -1 19 -3 4 -6 -2 -5 -13z"/>
<path d="M1890 816 c0 -8 7 -17 16 -20 11 -4 15 -2 11 8 -3 8 -1 17 6 20 7 2
2 5 -10 5 -13 1 -23 -5 -23 -13z"/>
<path d="M1940 809 c0 -5 5 -7 10 -4 6 3 10 8 10 11 0 2 -4 4 -10 4 -5 0 -10
-5 -10 -11z"/>
<path d="M31 784 c0 -11 3 -14 6 -6 3 7 2 16 -1 19 -3 4 -6 -2 -5 -13z"/>
<path d="M133 793 c-16 -6 8 -33 29 -33 9 -1 8 -5 -4 -14 -12 -9 -14 -16 -7
-23 6 -6 8 -17 4 -23 -6 -9 -9 -9 -16 1 -4 7 -11 10 -14 7 -14 -14 7 -27 34
-22 32 7 52 -13 30 -27 -12 -7 -12 -9 1 -9 10 0 11 -3 3 -11 -8 -8 -8 -18 -1
-35 12 -26 16 -28 37 -15 16 11 6 31 -16 31 -13 0 -13 3 -3 15 9 11 9 15 1 15
-7 0 -10 4 -7 9 8 13 -17 61 -33 61 -10 0 -11 3 -2 14 8 9 8 21 1 40 -10 26
-14 29 -37 19z"/>
<path d="M1846 753 c-6 -14 -5 -15 5 -6 7 7 10 15 7 18 -3 3 -9 -2 -12 -12z"/>
<path d="M1900 749 c0 -6 -7 -9 -15 -5 -8 3 -15 1 -15 -4 0 -6 9 -10 20 -10
11 0 20 7 20 15 0 8 -2 15 -5 15 -3 0 -5 -5 -5 -11z"/>
<path d="M1850 706 c0 -8 7 -17 16 -20 25 -9 26 -2 4 17 -16 13 -20 14 -20 3z"/>
<path d="M1905 690 c-3 -6 1 -7 9 -4 18 7 21 14 7 14 -6 0 -13 -4 -16 -10z"/>
<path d="M1857 659 c3 -10 9 -16 14 -13 13 8 11 21 -5 27 -10 4 -12 0 -9 -14z"/>
<path d="M472 633 c2 -25 9 -39 18 -41 12 -2 16 6 15 38 0 32 -4 40 -18 40
-15 0 -18 -7 -15 -37z"/>
<path d="M570 636 c0 -24 -5 -36 -17 -39 -12 -3 -10 -5 7 -6 32 -1 57 13 40
24 -7 4 -9 17 -6 31 5 17 2 24 -9 24 -10 0 -15 -10 -15 -34z"/>
<path d="M668 630 c3 -31 8 -40 23 -40 16 0 18 5 13 28 -10 46 -13 52 -26 52
-10 0 -12 -12 -10 -40z"/>
<path d="M750 636 c0 -34 13 -47 48 -45 12 0 10 3 -5 9 -25 10 -30 39 -11 58
9 9 7 12 -10 12 -18 0 -22 -6 -22 -34z"/>
<path d="M818 663 c18 -4 22 -11 22 -39 0 -28 4 -34 21 -34 16 0 19 5 15 20
-3 11 -9 29 -12 40 -4 15 -13 20 -37 19 -24 -1 -26 -3 -9 -6z"/>
<path d="M927 663 c-14 -13 -6 -20 33 -32 22 -6 40 -16 40 -21 0 -14 -26 -12
-50 2 -10 7 -23 9 -27 5 -21 -22 75 -37 107 -17 11 7 4 14 -34 31 -36 15 -45
23 -35 30 11 7 9 9 -7 9 -11 0 -24 -3 -27 -7z"/>
<path d="M995 660 c3 -5 16 -10 28 -10 18 0 19 2 7 10 -20 13 -43 13 -35 0z"/>
<path d="M1080 660 c0 -5 9 -10 19 -10 11 0 23 5 26 10 4 6 -5 10 -19 10 -14
0 -26 -4 -26 -10z"/>
<path d="M1166 656 c3 -8 -2 -16 -13 -19 -16 -4 -16 -5 0 -6 12 -1 17 -10 17
-31 0 -20 5 -30 15 -30 21 0 30 27 15 45 -7 8 -10 24 -7 35 4 15 0 20 -14 20
-12 0 -16 -5 -13 -14z"/>
<path d="M1270 636 c0 -24 5 -39 15 -43 22 -8 24 -3 16 36 -9 48 -31 53 -31 7z"/>
<path d="M1350 636 c0 -35 13 -47 53 -45 20 1 20 2 -3 8 -20 6 -25 14 -25 39
0 19 -5 32 -12 32 -8 0 -13 -13 -13 -34z"/>
<path d="M1440 635 c0 -23 6 -38 15 -42 21 -8 23 -4 17 40 -6 49 -32 51 -32 2z"/>
<path d="M81 635 c0 -5 6 -21 14 -35 8 -14 14 -20 14 -15 0 6 -6 21 -14 35 -8
14 -14 21 -14 15z"/>
<path d="M250 610 c9 -17 7 -22 -15 -30 -31 -12 -33 -24 -2 -15 21 6 21 6 3
-9 -21 -17 -11 -22 13 -7 7 5 10 14 7 20 -4 6 -3 11 3 11 22 0 22 -24 0 -42
-20 -15 -21 -17 -4 -11 18 6 18 5 7 -10 -16 -19 -8 -39 13 -30 11 3 13 1 9
-10 -8 -21 11 -30 26 -12 11 13 10 14 -6 8 -17 -6 -18 -5 -4 12 12 15 12 17 1
10 -11 -6 -13 -4 -8 9 4 11 1 19 -10 23 -14 6 -14 8 3 20 17 13 18 15 3 23 -9
6 -20 21 -23 35 -4 14 -11 25 -17 25 -6 0 -6 -7 1 -20z m35 -100 c-3 -5 -12
-10 -18 -10 -7 0 -6 4 3 10 19 12 23 12 15 0z"/>
<path d="M1810 608 c0 -6 3 -8 7 -5 3 4 12 2 20 -4 8 -7 13 -8 13 -1 0 5 -7
13 -16 16 -22 8 -24 8 -24 -6z"/>
<path d="M1790 581 c0 -5 9 -11 20 -14 24 -6 27 8 4 17 -21 8 -24 8 -24 -3z"/>
<path d="M1767 540 c-21 -25 -21 -34 1 -51 16 -13 16 -13 2 5 -14 18 -13 19 4
13 15 -6 16 -5 8 6 -7 8 -8 18 -1 27 8 13 10 13 20 0 9 -12 10 -12 7 -1 -6 23
-22 23 -41 1z"/>
<path d="M130 530 c6 -11 13 -20 16 -20 2 0 0 9 -6 20 -6 11 -13 20 -16 20 -2
0 0 -9 6 -20z"/>
<path d="M608 523 c7 -3 16 -2 19 1 4 3 -2 6 -13 5 -11 0 -14 -3 -6 -6z"/>
<path d="M532 471 c-2 -45 -15 -47 -25 -6 -3 15 -5 13 -6 -8 -1 -18 -5 -26
-12 -21 -6 4 -9 19 -5 36 3 18 2 27 -4 23 -12 -7 -14 -65 -2 -66 4 0 18 -2 30
-3 28 -3 35 10 29 56 -3 28 -4 27 -5 -11z"/>
<path d="M573 465 c0 -22 2 -30 4 -17 2 12 2 30 0 40 -3 9 -5 -1 -4 -23z"/>
<path d="M612 478 c-1 -14 -5 -35 -8 -45 -5 -14 -4 -15 5 -7 7 7 11 26 8 45
-3 28 -4 29 -5 7z"/>
<path d="M650 490 c0 -6 5 -8 11 -4 17 10 28 -16 18 -44 -7 -18 -6 -23 3 -20
7 3 13 20 13 39 0 28 -4 35 -22 37 -13 2 -23 -2 -23 -8z"/>
<path d="M723 465 c0 -22 2 -30 4 -17 2 12 2 30 0 40 -3 9 -5 -1 -4 -23z"/>
<path d="M753 465 c0 -22 2 -30 4 -17 2 12 2 30 0 40 -3 9 -5 -1 -4 -23z"/>
<path d="M785 490 c-5 -8 -2 -17 8 -25 10 -7 17 -20 17 -31 0 -14 3 -15 12 -6
9 9 8 16 -4 29 -8 10 -17 25 -20 33 -4 11 -6 12 -13 0z"/>
<path d="M810 490 c0 -5 5 -10 11 -10 5 0 7 5 4 10 -3 6 -8 10 -11 10 -2 0 -4
-4 -4 -10z"/>
<path d="M880 468 l-1 -33 -15 25 c-8 14 -13 17 -10 7 3 -10 6 -23 6 -28 0 -5
9 -9 20 -9 15 0 20 7 20 29 0 17 -4 33 -10 36 -6 4 -10 -7 -10 -27z"/>
<path d="M947 468 l4 -33 -15 25 c-8 14 -15 20 -16 13 0 -23 13 -43 29 -43 14
0 16 7 13 35 -2 19 -7 35 -11 35 -4 0 -6 -15 -4 -32z"/>
<path d="M999 462 c5 -34 6 -35 9 -8 2 16 0 32 -5 37 -5 5 -7 -7 -4 -29z"/>
<path d="M1030 467 c0 -20 4 -38 9 -42 6 -3 7 10 4 32 -8 50 -13 55 -13 10z"/>
<path d="M1068 465 c-2 -19 0 -35 4 -35 4 0 8 16 8 35 0 19 -2 35 -4 35 -2 0
-6 -16 -8 -35z"/>
<path d="M1133 465 c0 -22 2 -30 4 -17 2 12 2 30 0 40 -3 9 -5 -1 -4 -23z"/>
<path d="M1194 484 c3 -9 6 -24 6 -35 0 -10 5 -19 10 -19 11 0 13 30 4 54 -3
9 -11 16 -16 16 -6 0 -7 -7 -4 -16z"/>
<path d="M1278 469 c3 -17 0 -29 -7 -29 -6 0 -11 6 -11 14 0 8 -4 17 -9 20 -4
3 -6 -6 -3 -19 7 -38 42 -34 42 4 0 17 -4 32 -8 35 -5 3 -6 -8 -4 -25z"/>
<path d="M1333 487 c-22 -10 -34 -57 -15 -57 5 0 8 9 8 20 -1 10 4 19 9 19 6
0 9 -12 8 -26 -2 -18 1 -23 8 -16 6 6 9 24 7 40 -3 27 -5 29 -25 20z"/>
<path d="M1390 466 c0 -20 5 -36 10 -36 6 0 10 13 10 29 0 17 -4 33 -10 36 -6
4 -10 -8 -10 -29z"/>
<path d="M1430 466 c0 -19 4 -37 8 -40 4 -2 6 11 4 30 -3 21 0 34 7 34 6 0 11
-13 11 -30 0 -16 5 -30 11 -30 6 0 9 14 7 33 -2 24 -8 33 -25 35 -20 3 -23 -1
-23 -32z"/>
<path d="M1100 460 c0 -16 3 -30 8 -30 4 0 7 14 7 30 0 17 -3 30 -7 30 -5 0
-8 -13 -8 -30z"/>
<path d="M1165 460 c0 -16 3 -30 8 -30 4 0 7 14 7 30 0 17 -3 30 -7 30 -5 0
-8 -13 -8 -30z"/>
<path d="M653 455 c-3 -9 -3 -18 -1 -21 3 -3 8 4 11 16 6 23 -1 27 -10 5z"/>
<path d="M1692 439 c-20 -24 -22 -32 -12 -44 15 -18 -1 -20 -18 -3 -7 7 -12 9
-12 4 0 -4 6 -14 14 -21 19 -20 41 2 23 23 -10 13 -9 15 10 10 16 -4 20 -2 16
10 -5 11 -3 13 8 7 12 -7 12 -6 1 7 -10 12 -10 18 -1 23 6 4 16 1 21 -6 8 -12
9 -11 5 1 -6 25 -31 21 -55 -11z"/>
<path d="M325 450 c3 -5 1 -10 -4 -10 -6 0 -11 -5 -11 -11 0 -8 5 -8 15 1 17
14 20 30 4 30 -5 0 -7 -4 -4 -10z"/>
<path d="M180 446 c0 -2 8 -10 18 -17 15 -13 16 -12 3 4 -13 16 -21 21 -21 13z"/>
<path d="M780 440 c0 -5 5 -10 11 -10 5 0 7 5 4 10 -3 6 -8 10 -11 10 -2 0 -4
-4 -4 -10z"/>
<path d="M350 419 c0 -5 -4 -7 -10 -4 -5 3 -10 -2 -10 -11 0 -16 1 -16 20 1
23 20 24 25 10 25 -5 0 -10 -5 -10 -11z"/>
<path d="M210 406 c0 -2 8 -10 18 -17 15 -13 16 -12 3 4 -13 16 -21 21 -21 13z"/>
<path d="M360 382 c0 -12 3 -12 15 -2 8 7 15 13 15 15 0 1 -7 2 -15 2 -8 0
-15 -7 -15 -15z"/>
<path d="M1789 363 c-13 -16 -12 -17 4 -4 16 13 21 21 13 21 -2 0 -10 -8 -17
-17z"/>
<path d="M300 305 c35 -36 67 -65 69 -65 3 0 -24 29 -59 65 -35 36 -67 65 -69
65 -3 0 24 -29 59 -65z"/>
<path d="M403 363 c-7 -3 -13 -9 -13 -15 0 -6 6 -6 15 2 9 8 15 9 15 2 0 -6
-5 -14 -11 -18 -8 -4 -7 -9 2 -14 15 -10 39 -2 39 12 0 6 -7 4 -16 -3 -15 -12
-16 -11 -10 8 7 23 -1 33 -21 26z"/>
<path d="M1609 363 c-1 -5 -3 -18 -4 -31 -1 -12 -6 -26 -10 -30 -5 -4 -5 1 -2
11 7 18 0 22 -21 8 -10 -6 -9 -11 4 -22 14 -11 18 -11 29 4 6 9 16 13 20 9 5
-4 5 1 1 12 -5 14 -3 17 11 12 15 -6 15 -4 -2 14 -20 22 -24 24 -26 13z"/>
<path d="M467 303 c-13 -12 -7 -22 8 -17 11 5 14 1 9 -12 -5 -16 -4 -16 5 -4
6 8 11 21 11 28 0 13 -22 17 -33 5z"/>
<path d="M1537 294 c-3 -3 -3 -12 0 -20 3 -8 0 -14 -6 -14 -6 0 -11 5 -11 10
0 14 -13 13 -34 -3 -18 -13 -13 -47 7 -47 7 0 7 4 -1 12 -18 18 -14 32 5 17
11 -10 14 -10 9 -1 -9 16 6 16 22 0 10 -10 14 -8 18 9 4 15 11 20 22 15 15 -5
15 -4 3 11 -14 18 -24 21 -34 11z"/>
<path d="M506 275 c-8 -23 -8 -23 13 -34 14 -8 22 -7 31 4 11 13 10 14 -3 10
-10 -4 -15 -1 -14 11 2 22 -19 29 -27 9z m16 -17 c-7 -7 -12 -8 -12 -2 0 14
12 26 19 19 2 -3 -1 -11 -7 -17z"/>
<path d="M1669 243 c-13 -16 -12 -17 4 -4 16 13 21 21 13 21 -2 0 -10 -8 -17
-17z"/>
<path d="M575 240 c3 -5 8 -10 11 -10 2 0 4 5 4 10 0 6 -5 10 -11 10 -5 0 -7
-4 -4 -10z"/>
<path d="M380 236 c0 -2 8 -10 18 -17 15 -13 16 -12 3 4 -13 16 -21 21 -21 13z"/>
<path d="M650 230 c12 -8 11 -10 -7 -10 -13 0 -23 -5 -23 -11 0 -6 -7 -9 -15
-5 -8 3 -15 1 -15 -4 0 -13 27 -13 35 0 10 16 25 1 18 -18 -4 -12 -3 -14 5 -7
6 6 14 22 17 38 6 22 4 27 -11 27 -16 0 -17 -2 -4 -10z"/>
<path d="M1440 230 c0 -6 4 -9 9 -5 5 3 12 -2 14 -10 4 -12 5 -12 3 1 -1 19
-26 32 -26 14z"/>
<path d="M555 220 c3 -5 11 -10 16 -10 6 0 7 5 4 10 -3 6 -11 10 -16 10 -6 0
-7 -4 -4 -10z"/>
<path d="M1405 220 c-3 -6 -10 -8 -14 -5 -12 7 -44 -32 -36 -44 3 -6 2 -11 -4
-11 -5 0 -12 8 -14 18 -4 13 -5 11 -6 -5 0 -13 5 -23 12 -23 20 1 44 24 40 40
-3 10 2 8 12 -5 17 -20 17 -20 11 2 -9 27 9 39 23 16 6 -10 11 -13 11 -7 0 18
-27 37 -35 24z"/>
<path d="M1320 210 c-12 -8 -11 -10 8 -10 12 0 22 5 22 10 0 13 -11 13 -30 0z"/>
<path d="M670 179 c0 -11 5 -17 10 -14 6 3 10 0 10 -7 0 -9 3 -9 10 2 13 20
13 33 0 25 -5 -3 -10 -1 -10 4 0 6 -4 11 -10 11 -5 0 -10 -9 -10 -21z"/>
<path d="M1170 171 c0 -6 5 -13 10 -16 6 -3 10 -15 10 -26 0 -10 4 -19 9 -19
6 0 6 12 0 32 -5 18 -9 34 -9 35 0 2 -4 3 -10 3 -5 0 -10 -4 -10 -9z"/>
<path d="M1286 172 c-2 -4 -1 -14 4 -22 7 -11 12 -12 21 -3 6 6 8 16 5 22 -8
13 -23 14 -30 3z m24 -12 c0 -5 -2 -10 -4 -10 -3 0 -8 5 -11 10 -3 6 -1 10 4
10 6 0 11 -4 11 -10z"/>
<path d="M758 163 c7 -3 16 -2 19 1 4 3 -2 6 -13 5 -11 0 -14 -3 -6 -6z"/>
<path d="M868 163 c7 -3 16 -2 19 1 4 3 -2 6 -13 5 -11 0 -14 -3 -6 -6z"/>
<path d="M1260 165 c0 -5 5 -17 10 -25 5 -8 10 -10 10 -5 0 6 -5 17 -10 25 -5
8 -10 11 -10 5z"/>
<path d="M795 150 c3 -5 8 -10 11 -10 2 0 4 5 4 10 0 6 -5 10 -11 10 -5 0 -7
-4 -4 -10z"/>
<path d="M834 136 c0 -13 4 -22 9 -19 10 6 9 31 -2 37 -5 3 -8 -5 -7 -18z"/>
<path d="M1216 140 c8 -31 10 -34 23 -25 6 3 10 16 10 28 -1 18 -2 19 -6 4 -5
-18 -5 -18 -19 0 -14 17 -15 16 -8 -7z"/>
<path d="M759 138 c-11 -8 -11 -9 3 -5 9 3 18 1 20 -5 2 -6 9 -9 16 -7 8 3 6
8 -6 16 -13 7 -23 8 -33 1z"/>
<path d="M863 135 c-3 -9 -3 -18 -1 -21 3 -3 8 4 11 16 6 23 -1 27 -10 5z"/>
<path d="M997 134 c-11 -11 -8 -44 3 -44 15 0 24 30 13 41 -5 5 -12 6 -16 3z
m10 -26 c-3 -8 -6 -5 -6 6 -1 11 2 17 5 13 3 -3 4 -12 1 -19z"/>
<path d="M1091 130 c0 -3 4 -14 9 -25 7 -17 9 -17 9 -2 1 9 6 17 11 17 6 0 10
4 10 8 0 4 -9 8 -20 8 -11 0 -20 -3 -19 -6z"/>
<path d="M1137 121 c-4 -17 -2 -19 13 -11 13 7 20 6 24 -3 3 -6 5 -3 3 8 -3
27 -33 31 -40 6z"/>
<path d="M1038 123 c7 -3 16 -2 19 1 4 3 -2 6 -13 5 -11 0 -14 -3 -6 -6z"/>
<path d="M1070 118 c0 -9 5 -20 10 -23 13 -8 13 5 0 25 -8 13 -10 13 -10 -2z"/>
<path d="M916 107 c3 -10 9 -15 12 -12 3 3 0 11 -7 18 -10 9 -11 8 -5 -6z"/>
<path d="M795 100 c3 -5 8 -10 11 -10 2 0 4 5 4 10 0 6 -5 10 -11 10 -5 0 -7
-4 -4 -10z"/>
<path d="M950 102 c0 -5 7 -9 15 -9 8 0 15 4 15 9 0 4 -7 8 -15 8 -8 0 -15 -4
-15 -8z"/>
<path d="M610 90 c8 -5 20 -10 25 -10 6 0 3 5 -5 10 -8 5 -19 10 -25 10 -5 0
-3 -5 5 -10z"/>
<path d="M778 33 c7 -3 16 -2 19 1 4 3 -2 6 -13 5 -11 0 -14 -3 -6 -6z"/>
<path d="M828 23 c7 -3 16 -2 19 1 4 3 -2 6 -13 5 -11 0 -14 -3 -6 -6z"/>
<path d="M893 13 c9 -2 23 -2 30 0 6 3 -1 5 -18 5 -16 0 -22 -2 -12 -5z"/>
<path d="M1128 13 c7 -3 16 -2 19 1 4 3 -2 6 -13 5 -11 0 -14 -3 -6 -6z"/>
<path d="M983 3 c20 -2 54 -2 75 0 20 2 3 4 -38 4 -41 0 -58 -2 -37 -4z"/>
</g>
</svg>
